<svg version="1.2" xmlns="http://www.w3.org/2000/svg" viewBox="0 0 127 127" width="127" height="127"><style>.a{fill:#f8f8f8}.b{opacity:.3;fill:#e8e7e7}</style><path class="a" d="m63.8 0.6l63.1 63.1-63.1 63.1-63.1-63.1z"/><path class="b" d="m95.3 9.1l23.1 86.1-86.1 23.1-23.1-86.2z"/><path fill-rule="evenodd" d="m94 38.1v54.3c0 2.1-1.3 2.6-3.3 2.6h-53.5c-2 0-3.2-0.5-3.2-2.6v-53.4c0-2.1 1.2-4 3.2-4h53.3c2 0 3.5 1 3.5 3.1zm-56.2 0.6v8.5h52.5v-8.4zm52.5 52.5v-42.2h-52.5v42.2z"/><path  d="m41 44h2c0.6 0 1-0.2 1-0.5 0-0.3-0.4-0.5-1-0.5h-2c-0.6 0-1 0.2-1 0.5 0 0.3 0.4 0.5 1 0.5z"/><path  d="m47 44h2c0.6 0 1-0.2 1-0.5 0-0.3-0.4-0.5-1-0.5h-2c-0.6 0-1 0.2-1 0.5 0 0.3 0.4 0.5 1 0.5z"/><path  d="m52.8 44h1.5c0.4 0 0.7-0.2 0.7-0.5 0-0.3-0.3-0.5-0.7-0.5h-1.5c-0.5 0-0.8 0.2-0.8 0.5 0 0.3 0.3 0.5 0.8 0.5z"/><path  d="m56.6 63.2c-0.4-0.3-1-0.3-1.4 0.1l-6 6.9c-0.3 0.3-0.3 0.8 0 1.1l6 7.3c0.2 0.3 0.5 0.4 0.8 0.4q0.3 0 0.6-0.2c0.4-0.3 0.5-0.9 0.2-1.3l-5.5-6.7 5.5-6.3c0.3-0.4 0.3-1-0.2-1.3z"/><path  d="m73.6 63.4c-0.3-0.4-0.9-0.5-1.3-0.2-0.3 0.3-0.4 0.9-0.1 1.3l4.8 6.7-4.8 6.3c-0.3 0.4-0.3 1 0.1 1.3q0.3 0.2 0.6 0.2c0.2 0 0.5-0.1 0.7-0.3l5.2-6.9c0.3-0.3 0.3-0.8 0-1.1z"/><path  d="m60.9 62.6c-0.2-0.5-0.7-0.7-1.3-0.5-0.5 0.2-0.7 0.7-0.5 1.2l8 19.1c0.1 0.4 0.5 0.6 0.9 0.6q0.2 0 0.4-0.1c0.5-0.2 0.7-0.7 0.5-1.2z"/></svg>