<svg width="127" height="127" viewBox="0 0 127 127" fill="none" xmlns="http://www.w3.org/2000/svg">
<rect x="63.7884" y="0.608887" width="89.2029" height="89.2029" transform="rotate(45 63.7884 0.608887)" fill="#F8F8F8"/>
<rect x="95.0003" y="9" width="89.203" height="89.203" transform="rotate(75 95.0003 9)" fill="#E8E7E7" fill-opacity="0.3"/>
<path d="M59.1307 48.1204H21.2317C20.5522 48.1204 20.0002 48.6761 20.0002 49.362V60.6418C20.0002 61.3266 20.5522 61.8824 21.2317 61.8824H59.1307C59.8119 61.8824 60.3636 61.3266 60.3636 60.6418V49.361C60.3636 48.6752 59.8119 48.1204 59.1307 48.1204ZM40.1824 57.9401H24.0054V51.424H40.1824V57.9401ZM59.1307 64.7593H21.2317C20.5522 64.7593 20.0002 65.3152 20.0002 65.9995V77.2802C20.0002 77.9676 20.5522 78.5214 21.2317 78.5214H59.1307C59.8119 78.5214 60.3636 77.9676 60.3636 77.2802V65.9995C60.3636 65.3152 59.8119 64.7593 59.1307 64.7593ZM40.1824 74.4104H24.0054V67.8943H40.1824V74.4104ZM59.1307 81.239H21.2317C20.5522 81.239 20.0002 81.7948 20.0002 82.4811V93.7589C20.0002 94.4454 20.5522 95 21.2317 95H59.1307C59.8119 95 60.3636 94.4454 60.3636 93.7589V82.4791C60.3636 81.7936 59.8119 81.239 59.1307 81.239ZM40.1824 91.3774H24.0054V84.8604H40.1824V91.3774ZM107 64.0245C107 72.6758 100.012 79.7121 91.4214 79.7121H63.301C63.5004 79.2246 63.623 78.6955 63.623 78.1357V76.4012H91.4214C98.1983 76.4012 103.712 70.8491 103.712 64.0237C103.712 57.1982 98.1993 51.6477 91.4214 51.6477C90.7839 51.6477 90.1112 51.7096 89.3649 51.8361L88.3142 52.0146L87.7229 51.1201C85.4349 47.6578 81.6068 45.59 77.4881 45.59C77.0758 45.59 76.6553 45.6113 76.2429 45.6538L74.8563 45.7956L74.4909 44.4408C73.0415 39.0664 68.1707 35.3114 62.6443 35.3114C56.4599 35.3114 51.3426 39.9411 50.4926 45.9375H47.1689C48.037 38.109 54.6427 32 62.6443 32C69.1999 32 75.0262 36.1629 77.2565 42.2794C82.2255 42.2167 86.8588 44.4961 89.85 48.4243C90.3923 48.365 90.9126 48.3353 91.4214 48.3353C100.012 48.3359 107 55.3744 107 64.0245Z" fill="black"/>
</svg>
