<svg version="1.2" xmlns="http://www.w3.org/2000/svg" viewBox="0 0 127 127" width="127" height="127"><style>.a{fill:#f8f8f8}.b{opacity:.3;fill:#e8e7e7}.c{fill:#231815}</style><path class="a" d="m63.8 0.6l63.1 63.1-63.1 63.1-63.1-63.1z"/><path class="b" d="m95 9l23.1 86.2-86.2 23.1-23.1-86.2z"/><path fill-rule="evenodd" class="c" d="m39.9 45.8c0-7.3 12.6-11.8 24.4-11.8 13 0 22.8 5 22.8 11.8 0 6.7-9.8 11.8-22.8 11.8-11.8 0-24.4-4.5-24.4-11.8zm3.9 0c0 3.5 9.3 7.9 20.5 7.9 11.1 0 18.9-4.2 18.9-7.9 0-3.7-7.8-7.9-18.9-7.9-11.4 0-20.5 4.3-20.5 7.9zm-0.1 34.7q0.1 0.3 0.1 0.7 0 0.4-0.1 0.8-0.2 0.3-0.5 0.6-0.2 0.3-0.6 0.4-0.4 0.2-0.8 0.2-0.3 0-0.7-0.2-0.4-0.1-0.7-0.4-0.2-0.3-0.4-0.6-0.1-0.4-0.1-0.8 0-0.4 0.1-0.8 0.2-0.3 0.4-0.6 0.4-0.4 0.9-0.5 0.4-0.1 0.9 0 0.2 0 0.4 0.1 0.2 0.1 0.3 0.2 0.2 0.1 0.3 0.2 0.3 0.3 0.5 0.7zm12.3 7.7c0.5 0.1 1 0.3 1.3 0.7 0.3 0.4 0.5 1 0.4 1.5 0 0.5-0.3 1-0.7 1.3-0.4 0.4-0.9 0.5-1.4 0.5h-0.4c-3.4-0.6-6.6-1.8-9.6-3.4-0.5-0.2-0.8-0.7-0.9-1.2-0.2-0.5-0.1-1 0.2-1.5 0.2-0.4 0.6-0.7 1.2-0.9 0.5-0.1 1 0 1.5 0.2 2.6 1.4 5.5 2.4 8.4 2.9zm28.8-10.9q0.3 0 0.7 0.1 0.4 0.1 0.7 0.4 0.2 0.3 0.4 0.7 0.6 1.3 0.6 2.7c0 6.7-9.9 11.8-22.9 11.8h-0.8c-0.5 0-1-0.2-1.4-0.6-0.3-0.3-0.5-0.8-0.5-1.4 0-0.5 0.2-1 0.5-1.4 0.4-0.3 0.9-0.5 1.4-0.5h0.8c11.2 0 18.9-4.2 18.9-7.9q0-0.6-0.2-1.2c-0.2-0.5-0.2-1 0-1.5 0.1-0.5 0.5-0.9 1-1.1q0.4-0.1 0.8-0.1z"/><path class="c" d="m84 53.8c-0.5 0.2-0.9 0.6-1.1 1.1-0.2 0.5-0.2 1 0 1.5q0.3 0.6 0.3 1.2c0 3.7-7.8 7.9-18.9 7.9-11.2 0-20.5-4.3-20.5-7.9q0-0.6 0.3-1.1 0.2-0.4 0.2-0.8 0-0.4-0.1-0.7-0.1-0.4-0.4-0.7-0.2-0.3-0.6-0.5-0.3-0.2-0.7-0.2-0.4 0-0.8 0.1-0.4 0.1-0.7 0.4-0.3 0.3-0.4 0.6c-0.5 0.9-0.7 1.9-0.7 2.9 0 7.3 12.6 11.8 24.4 11.8 13 0 22.8-5.1 22.8-11.8q0-1.4-0.5-2.7-0.2-0.4-0.5-0.7-0.3-0.3-0.6-0.4-0.4-0.2-0.8-0.1-0.4 0-0.7 0.1z"/><path class="c" d="m84 65.6c-0.5 0.2-0.9 0.6-1.1 1.1-0.2 0.5-0.2 1 0 1.5q0.3 0.6 0.3 1.2c0 3.7-7.8 7.9-18.9 7.9-11.2 0-20.5-4.3-20.5-7.9q0-0.6 0.3-1.1 0.2-0.3 0.2-0.7 0-0.4-0.1-0.8-0.1-0.4-0.4-0.7-0.2-0.3-0.6-0.5-0.3-0.2-0.7-0.2-0.4 0-0.8 0.1-0.4 0.2-0.7 0.4-0.3 0.3-0.4 0.7c-0.5 0.8-0.7 1.8-0.7 2.8 0 7.3 12.6 11.8 24.4 11.8 13 0 22.8-5.1 22.8-11.8q0-1.4-0.5-2.7-0.2-0.4-0.5-0.7-0.3-0.2-0.6-0.4-0.4-0.1-0.8-0.1-0.4 0-0.7 0.1z"/></svg>