<svg width="127" height="127" viewBox="0 0 127 127" fill="none" xmlns="http://www.w3.org/2000/svg">
<rect x="63.0762" y="0.608887" width="89.2029" height="89.2029" transform="rotate(45 63.0762 0.608887)" fill="#F8F8F8"/>
<rect x="94.2881" y="9" width="89.203" height="89.203" transform="rotate(75 94.2881 9)" fill="#E8E7E7" fill-opacity="0.3"/>
<path d="M46.6252 84.759C47.0641 84.7578 47.4929 84.6247 47.8572 84.3765C48.2215 84.1282 48.5051 83.776 48.6721 83.3644C48.8392 82.9527 48.8821 82.5001 48.7955 82.0637C48.7089 81.6273 48.4967 81.2268 48.1857 80.9126C47.8748 80.5985 47.4789 80.3849 47.0483 80.2989C46.6176 80.2129 46.1715 80.2583 45.7662 80.4293C45.361 80.6003 45.0149 80.8894 44.7716 81.2599C44.5283 81.6303 44.3987 82.0657 44.3993 82.5108C44.3993 82.807 44.4569 83.1002 44.5689 83.3737C44.6808 83.6473 44.8449 83.8957 45.0516 84.1049C45.2584 84.314 45.5038 84.4797 45.7739 84.5925C46.0439 84.7052 46.3332 84.7598 46.6252 84.759ZM74.1821 91.5068C74.869 91.5056 75.5402 91.2979 76.1107 90.91C76.6813 90.522 77.1256 89.9712 77.3875 89.3271C77.6494 88.6831 77.7172 87.9748 77.5822 87.2917C77.4473 86.6087 77.1156 85.9815 76.6293 85.4895C76.1429 84.9976 75.5236 84.6629 74.8497 84.5278C74.1758 84.3927 73.4776 84.4632 72.8432 84.7305C72.2089 84.9978 71.6669 85.4498 71.2858 86.0295C70.9047 86.6091 70.7016 87.2903 70.7022 87.9869C70.7038 88.9216 71.0712 89.8173 71.7237 90.4773C72.3763 91.1374 73.2605 91.5077 74.1821 91.5068ZM60.9976 92.6994C61.5826 92.6982 62.1542 92.5211 62.6399 92.1905C63.1257 91.8599 63.5039 91.3906 63.7266 90.842C63.9494 90.2935 64.0068 89.6902 63.8915 89.1086C63.7762 88.5269 63.4934 87.993 63.0789 87.5743C62.6644 87.1557 62.1368 86.8711 61.5628 86.7565C60.9888 86.6419 60.3942 86.7026 59.8541 86.9307C59.3141 87.1589 58.8529 87.5443 58.5289 88.0382C58.2049 88.5322 58.0326 89.1125 58.0337 89.7058C58.0353 90.5017 58.3484 91.2643 58.9041 91.8262C59.4599 92.3881 60.2129 92.7002 60.9976 92.6994ZM68.4793 98.997C69.1662 98.9958 69.8374 98.788 70.408 98.4001C70.9785 98.0121 71.4228 97.4613 71.6847 96.8173C71.9467 96.1732 72.0144 95.4649 71.8795 94.7819C71.7445 94.0988 71.4129 93.4716 70.9265 92.9797C70.4401 92.4877 69.8209 92.153 69.147 92.0179C68.4731 91.8828 67.7748 91.9534 67.1405 92.2206C66.5061 92.4879 65.9641 92.94 65.583 93.5196C65.2019 94.0992 64.9989 94.7804 64.9995 95.477C64.9998 95.9401 65.0902 96.3985 65.2653 96.8261C65.4404 97.2538 65.6968 97.6423 66.0199 97.9694C66.3431 98.2965 66.7266 98.5559 67.1485 98.7328C67.5705 98.9096 68.0227 98.9974 68.4793 98.997ZM54.8449 97.7983C55.4299 97.7977 56.0016 97.6212 56.4877 97.2911C56.9738 96.961 57.3524 96.4921 57.5757 95.9437C57.7991 95.3954 57.857 94.7922 57.7423 94.2104C57.6276 93.6286 57.3454 93.0944 56.9313 92.6754C56.5172 92.2563 55.9899 91.9711 55.416 91.856C54.8421 91.7408 54.2474 91.8008 53.7072 92.0284C53.1669 92.256 52.7053 92.641 52.3808 93.1346C52.0563 93.6282 51.8834 94.2084 51.884 94.8016C51.8856 95.597 52.1982 96.3592 52.7533 96.921C53.3084 97.4828 54.0606 97.7983 54.8449 97.7983ZM49.7361 91.2026C50.2482 91.2014 50.7485 91.0462 51.1737 90.7565C51.5988 90.4669 51.9297 90.0559 52.1245 89.5755C52.3192 89.0951 52.3691 88.567 52.2678 88.0578C52.1665 87.5487 51.9186 87.0815 51.5554 86.7153C51.1922 86.349 50.73 86.1003 50.2274 86.0005C49.7248 85.9008 49.2043 85.9544 48.7317 86.1547C48.2592 86.355 47.8558 86.6929 47.5727 87.1258C47.2896 87.5586 47.1394 88.0668 47.1412 88.5862C47.1436 89.282 47.4182 89.9484 47.9048 90.439C48.3913 90.9296 49.05 91.2042 49.7361 91.2026ZM55.8828 86.1098C56.3945 86.1098 56.8947 85.9561 57.3202 85.668C57.7457 85.3799 58.0776 84.9704 58.2738 84.4912C58.47 84.0119 58.5218 83.4845 58.4226 82.9755C58.3235 82.4664 58.0778 81.9986 57.7166 81.6311C57.3555 81.2635 56.895 81.0127 56.3934 80.9104C55.8918 80.8081 55.3715 80.8588 54.8983 81.0561C54.4251 81.2534 54.0202 81.5885 53.7346 82.0191C53.4491 82.4496 53.2957 82.9563 53.2939 83.4752C53.2932 83.8206 53.3595 84.1629 53.4892 84.4823C53.6189 84.8017 53.8095 85.092 54.0499 85.3367C54.2903 85.5814 54.576 85.7756 54.8905 85.9083C55.205 86.0409 55.5422 86.1094 55.8828 86.1098ZM66.7754 85.2093C67.3603 85.2081 67.9317 85.0311 68.4174 84.7006C68.9031 84.3701 69.2812 83.901 69.5041 83.3526C69.727 82.8042 69.7845 82.2011 69.6695 81.6196C69.5544 81.038 69.2719 80.5041 68.8577 80.0853C68.4435 79.6665 67.9162 79.3817 67.3424 79.2668C66.7686 79.1518 66.1741 79.212 65.634 79.4397C65.0939 79.6674 64.6325 80.0524 64.3081 80.5459C63.9837 81.0395 63.8109 81.6195 63.8115 82.2127C63.8131 83.0085 64.1262 83.7712 64.6819 84.3331C65.2377 84.895 65.9906 85.2101 66.7754 85.2093ZM61.5886 78.6897C62.1006 78.6897 62.6012 78.5357 63.0269 78.2472C63.4526 77.9587 63.7845 77.5487 63.9804 77.0689C64.1764 76.5892 64.2276 76.0613 64.1277 75.552C64.0279 75.0427 63.7813 74.5749 63.4192 74.2077C63.0572 73.8405 62.5959 73.5904 62.0937 73.4891C61.5915 73.3878 61.0709 73.4398 60.5979 73.6385C60.1248 73.8373 59.7205 74.1738 59.436 74.6055C59.1515 75.0373 58.9997 75.5449 58.9997 76.0642C59.0005 76.7603 59.2735 77.4276 59.7589 77.9198C60.2442 78.412 60.9022 78.6889 61.5886 78.6897ZM52.772 79.6632C53.2109 79.6626 53.6398 79.5301 54.0045 79.2823C54.3691 79.0346 54.6532 78.6828 54.8208 78.2713C54.9883 77.8599 55.0318 77.4074 54.9459 76.9709C54.8599 76.5343 54.6482 76.1335 54.3376 75.8189C54.027 75.5044 53.6315 75.2903 53.2009 75.2037C52.7704 75.117 52.3242 75.1618 51.9188 75.3323C51.5133 75.5028 51.1668 75.7913 50.923 76.1615C50.6792 76.5316 50.5491 76.9668 50.5491 77.4119C50.5491 77.7078 50.6066 78.0008 50.7183 78.2742C50.8301 78.5475 50.9939 78.7958 51.2003 79.0049C51.4068 79.214 51.6518 79.3798 51.9215 79.4927C52.1912 79.6057 52.4802 79.6636 52.772 79.6632ZM45.2153 78.6897C45.5805 78.6885 45.9372 78.5776 46.2403 78.3709C46.5434 78.1642 46.7793 77.8711 46.9183 77.5286C47.0572 77.1861 47.0929 76.8094 47.021 76.4463C46.949 76.0832 46.7725 75.7498 46.5138 75.4883C46.2552 75.2269 45.9259 75.049 45.5676 74.9772C45.2093 74.9053 44.838 74.9428 44.5007 75.0848C44.1634 75.2268 43.8752 75.467 43.6724 75.7751C43.4696 76.0832 43.3614 76.4452 43.3614 76.8156C43.3617 77.0621 43.41 77.3061 43.5034 77.5337C43.5968 77.7613 43.7334 77.968 43.9056 78.1421C44.0778 78.3161 44.282 78.454 44.5067 78.548C44.7314 78.6419 44.9722 78.6901 45.2153 78.6897ZM45.1403 73.5178C45.4617 73.5172 45.7758 73.42 46.0428 73.2384C46.3098 73.0569 46.5177 72.7991 46.6403 72.4978C46.7629 72.1964 46.7947 71.865 46.7316 71.5453C46.6685 71.2257 46.5134 70.9321 46.2859 70.7018C46.0584 70.4715 45.7687 70.3148 45.4534 70.2514C45.1381 70.188 44.8113 70.2209 44.5144 70.3458C44.2174 70.4707 43.9637 70.682 43.7852 70.9531C43.6066 71.2242 43.5114 71.5429 43.5113 71.8689C43.5113 72.0857 43.5535 72.3003 43.6354 72.5006C43.7173 72.7008 43.8373 72.8828 43.9886 73.0359C44.1399 73.1891 44.3195 73.3105 44.5171 73.3932C44.7148 73.4758 44.9265 73.5182 45.1403 73.5178ZM51.44 73.5908C51.8054 73.5902 52.1624 73.4798 52.4659 73.2735C52.7693 73.0672 53.0057 72.7743 53.1451 72.4318C53.2845 72.0893 53.3207 71.7126 53.2491 71.3493C53.1774 70.986 53.0012 70.6523 52.7426 70.3905C52.4841 70.1287 52.1548 69.9506 51.7964 69.8785C51.438 69.8064 51.0666 69.8437 50.7292 69.9857C50.3917 70.1276 50.1032 70.3678 49.9003 70.6759C49.6974 70.984 49.5891 71.3462 49.5891 71.7168C49.5899 72.2141 49.7852 72.6907 50.1323 73.0421C50.4793 73.3935 50.9496 73.5908 51.44 73.5908ZM58.5497 72.1701C58.9888 72.1701 59.418 72.038 59.783 71.7906C60.1481 71.5433 60.4326 71.1917 60.6007 70.7803C60.7687 70.3689 60.8126 69.9163 60.727 69.4796C60.6413 69.0429 60.4299 68.6417 60.1194 68.3269C59.809 68.012 59.4134 67.7976 58.9828 67.7107C58.5522 67.6239 58.1058 67.6684 57.7002 67.8388C57.2946 68.0092 56.9479 68.2978 56.7039 68.668C56.46 69.0382 56.3298 69.4735 56.3298 69.9188C56.3306 70.5156 56.5647 71.0878 56.9809 71.5098C57.397 71.9318 57.9612 72.1693 58.5497 72.1701ZM57.1428 66.1768C57.508 66.1761 57.8649 66.0658 58.1683 65.8596C58.4717 65.6535 58.7081 65.3608 58.8476 65.0185C58.9871 64.6762 59.0234 64.2996 58.952 63.9363C58.8806 63.5731 58.7047 63.2395 58.4465 62.9775C58.1882 62.7156 57.8592 62.5372 57.501 62.4648C57.1428 62.3924 56.7715 62.4293 56.434 62.5707C56.0965 62.7122 55.8078 62.9519 55.6045 63.2596C55.4013 63.5674 55.2925 63.9293 55.2919 64.2997C55.2927 64.797 55.488 65.2736 55.835 65.625C56.1821 65.9764 56.6524 66.1737 57.1428 66.1737V66.1768ZM51.293 68.422C51.6142 68.4202 51.9277 68.3219 52.1939 68.1396C52.4601 67.9574 52.6671 67.6992 52.7888 67.3978C52.9104 67.0963 52.9414 66.765 52.8776 66.4458C52.8139 66.1265 52.6583 65.8336 52.4306 65.6039C52.2028 65.3742 51.9131 65.2181 51.5979 65.1552C51.2828 65.0923 50.9563 65.1255 50.6597 65.2505C50.3632 65.3756 50.1098 65.5869 49.9315 65.8579C49.7532 66.1289 49.6581 66.4473 49.6581 66.773C49.6581 66.9901 49.7003 67.205 49.7824 67.4055C49.8645 67.6059 49.9848 67.788 50.1364 67.9412C50.2881 68.0944 50.468 68.2157 50.666 68.2982C50.8639 68.3807 51.079 68.4228 51.293 68.422ZM45.9562 69.0973C46.2188 69.0967 46.4754 69.0173 46.6934 68.8689C46.9115 68.7206 47.0814 68.5101 47.1816 68.264C47.2818 68.0178 47.3079 67.7471 47.2565 67.4859C47.2051 67.2248 47.0786 66.9849 46.893 66.7966C46.7073 66.6083 46.4708 66.48 46.2132 66.4279C45.9557 66.3758 45.6888 66.4023 45.4461 66.5039C45.2034 66.6055 44.9958 66.7778 44.8495 66.999C44.7033 67.2201 44.6249 67.4803 44.6243 67.7466C44.6251 68.1046 44.7657 68.4477 45.0153 68.7008C45.2649 68.954 45.6032 69.0965 45.9562 69.0973ZM53.2969 49.1643C53.8088 49.1631 54.3089 49.008 54.7339 48.7186C55.1589 48.4293 55.4898 48.0186 55.6848 47.5386C55.8797 47.0586 55.9299 46.5307 55.8291 46.0217C55.7283 45.5128 55.481 45.0455 55.1184 44.6791C54.7558 44.3126 54.2942 44.0634 53.792 43.9629C53.2897 43.8625 52.7694 43.9152 52.2968 44.1146C51.8241 44.314 51.4203 44.651 51.1365 45.083C50.8526 45.515 50.7015 46.0227 50.702 46.5418C50.7024 46.8869 50.7699 47.2284 50.9006 47.547C51.0312 47.8656 51.2225 48.155 51.4635 48.3985C51.7045 48.6421 51.9905 48.8351 52.3051 48.9665C52.6197 49.0979 52.9567 49.1651 53.2969 49.1643ZM60.0347 49.0882C60.4738 49.0882 60.9032 48.9561 61.2683 48.7086C61.6334 48.4611 61.9179 48.1093 62.0859 47.6978C62.2538 47.2862 62.2976 46.8334 62.2117 46.3966C62.1258 45.9598 61.9141 45.5587 61.6033 45.2439C61.2925 44.9292 60.8967 44.715 60.4659 44.6285C60.0351 44.542 59.5886 44.587 59.1831 44.7579C58.7775 44.9287 58.431 45.2178 58.1874 45.5884C57.9439 45.959 57.8142 46.3946 57.8148 46.84C57.8155 47.4365 58.0498 48.0084 58.466 48.4299C58.8822 48.8514 59.4464 49.0882 60.0347 49.0882ZM58.7747 41.1478C59.2138 41.1478 59.643 41.0158 60.008 40.7684C60.3731 40.5211 60.6576 40.1695 60.8256 39.7581C60.9937 39.3467 61.0376 38.8941 60.952 38.4573C60.8663 38.0206 60.6549 37.6195 60.3444 37.3046C60.034 36.9898 59.6384 36.7754 59.2078 36.6885C58.7772 36.6016 58.3308 36.6462 57.9252 36.8166C57.5196 36.987 57.1729 37.2756 56.9289 37.6458C56.685 38.016 56.5548 38.4513 56.5548 38.8965C56.5556 39.4934 56.7897 40.0655 57.2059 40.4876C57.622 40.9096 58.1862 41.147 58.7747 41.1478ZM52.037 41.1448C52.5489 41.1436 53.049 40.9885 53.474 40.6992C53.899 40.4098 54.2299 39.9992 54.4248 39.5191C54.6198 39.0391 54.67 38.5112 54.5692 38.0023C54.4684 37.4933 54.221 37.026 53.8584 36.6596C53.4958 36.2931 53.0342 36.0439 52.532 35.9435C52.0298 35.843 51.5095 35.8958 51.0368 36.0951C50.5642 36.2945 50.1604 36.6315 49.8765 37.0635C49.5927 37.4955 49.4415 38.0032 49.4421 38.5223C49.4425 38.8674 49.5099 39.209 49.6406 39.5276C49.7713 39.8461 49.9626 40.1355 50.2036 40.379C50.4445 40.6226 50.7305 40.8156 51.0451 40.947C51.3597 41.0784 51.6968 41.1456 52.037 41.1448ZM44.1833 42.9428C44.7679 42.9404 45.3388 42.7623 45.8237 42.4311C46.3086 42.0999 46.6858 41.6304 46.9078 41.0819C47.1297 40.5334 47.1864 39.9305 47.0707 39.3493C46.9549 38.7682 46.672 38.2348 46.2576 37.8167C45.8431 37.3985 45.3158 37.1142 44.7421 36.9998C44.1685 36.8854 43.5743 36.9459 43.0346 37.1738C42.4948 37.4017 42.0338 37.7866 41.7097 38.28C41.3855 38.7735 41.2129 39.3532 41.2134 39.9461C41.2138 40.3408 41.291 40.7316 41.4406 41.096C41.5902 41.4603 41.8092 41.7912 42.0851 42.0696C42.361 42.348 42.6883 42.5684 43.0484 42.7182C43.4085 42.8681 43.7941 42.9444 44.1833 42.9428ZM45.4373 50.8892C46.022 50.888 46.5933 50.7111 47.0789 50.3808C47.5646 50.0504 47.9428 49.5815 48.1657 49.0333C48.3887 48.4851 48.4464 47.8821 48.3316 47.3006C48.2168 46.7191 47.9346 46.1852 47.5207 45.7663C47.1068 45.3474 46.5797 45.0623 46.0061 44.9471C45.4325 44.8318 44.8381 44.8916 44.298 45.1188C43.7578 45.346 43.2962 45.7305 42.9715 46.2236C42.6467 46.7168 42.4734 47.2965 42.4734 47.8896C42.4738 48.2839 42.5508 48.6743 42.6999 49.0384C42.8491 49.4026 43.0675 49.7334 43.3427 50.0119C43.618 50.2905 43.9446 50.5113 44.304 50.6618C44.6633 50.8124 45.0484 50.8897 45.4373 50.8892ZM36.8456 55.1576C37.5324 55.1564 38.2035 54.9487 38.774 54.5609C39.3444 54.1731 39.7888 53.6224 40.0508 52.9786C40.3128 52.3347 40.3807 51.6266 40.246 50.9436C40.1113 50.2606 39.78 49.6334 39.2939 49.1414C38.8078 48.6493 38.1888 48.3143 37.5151 48.1789C36.8414 48.0435 36.1433 48.1136 35.5089 48.3804C34.8744 48.6472 34.3323 49.0988 33.9508 49.678C33.5694 50.2572 33.3658 50.9381 33.3658 51.6346C33.3674 52.5695 33.7347 53.4656 34.3871 54.1261C35.0395 54.7866 35.9238 55.1576 36.8456 55.1576ZM31.4369 71.1205C32.2552 71.1187 33.0548 70.8709 33.7344 70.4085C34.414 69.9461 34.9432 69.2897 35.2551 68.5224C35.5671 67.7551 35.6478 66.9113 35.487 66.0975C35.3263 65.2837 34.9313 64.5364 34.352 63.9502C33.7727 63.364 33.035 62.965 32.2322 62.8038C31.4294 62.6425 30.5975 62.7262 29.8415 63.0442C29.0856 63.3622 28.4396 63.9004 27.9851 64.5906C27.5306 65.2808 27.288 66.0921 27.288 66.9221C27.2884 67.4741 27.3961 68.0206 27.6048 68.5304C27.8136 69.0402 28.1193 69.5032 28.5046 69.8931C28.8899 70.283 29.3472 70.5921 29.8503 70.8027C30.3534 71.0133 30.8926 71.1213 31.4369 71.1205ZM40.3255 63.9255C41.0123 63.9243 41.6833 63.7166 42.2538 63.3288C42.8243 62.9409 43.2686 62.3903 43.5306 61.7465C43.7926 61.1026 43.8606 60.3945 43.7259 59.7115C43.5911 59.0285 43.2598 58.4013 42.7737 57.9092C42.2877 57.4171 41.6687 57.0822 40.995 56.9468C40.3213 56.8113 39.6231 56.8814 38.9887 57.1483C38.3543 57.4151 37.8121 57.8666 37.4307 58.4459C37.0492 59.0251 36.8456 59.706 36.8456 60.4025C36.8472 61.3374 37.2145 62.2335 37.867 62.894C38.5194 63.5545 39.4036 63.9255 40.3255 63.9255ZM48.9231 59.6571C49.5077 59.6553 50.0787 59.4779 50.564 59.1472C51.0492 58.8164 51.4269 58.3473 51.6494 57.7991C51.8719 57.2508 51.9292 56.6479 51.8141 56.0666C51.6989 55.4854 51.4165 54.9517 51.0025 54.5331C50.5885 54.1145 50.0614 53.8297 49.4879 53.7147C48.9144 53.5997 48.3201 53.6596 47.7801 53.887C47.2402 54.1143 46.7787 54.4987 46.4541 54.9918C46.1295 55.4849 45.9563 56.0645 45.9562 56.6574C45.9566 57.052 46.0337 57.4426 46.1831 57.807C46.3324 58.1714 46.5511 58.5023 46.8266 58.7809C47.1022 59.0595 47.4292 59.2802 47.7889 59.4306C48.1486 59.5809 48.534 59.6579 48.9231 59.6571ZM56.7738 57.8561C57.2856 57.8531 57.785 57.6963 58.2089 57.4056C58.6329 57.1149 58.9624 56.7032 59.1557 56.2227C59.3491 55.7422 59.3977 55.2143 59.2954 54.7058C59.1931 54.1972 58.9445 53.7309 58.5809 53.3656C58.2174 53.0003 57.7552 52.7524 57.2528 52.6534C56.7505 52.5543 56.2304 52.6085 55.7584 52.8091C55.2864 53.0096 54.8835 53.3476 54.6008 53.7802C54.3181 54.2128 54.1681 54.7207 54.1699 55.2397C54.1711 55.585 54.2394 55.9267 54.371 56.2452C54.5026 56.5637 54.6948 56.8527 54.9367 57.0957C55.1785 57.3388 55.4653 57.531 55.7805 57.6615C56.0958 57.792 56.4333 57.8581 56.7738 57.8561ZM63.5145 57.8561C63.9537 57.8561 64.383 57.724 64.7481 57.4765C65.1133 57.229 65.3978 56.8772 65.5657 56.4656C65.7337 56.0541 65.7774 55.6013 65.6915 55.1645C65.6056 54.7277 65.3939 54.3265 65.0832 54.0118C64.7724 53.6971 64.3766 53.4829 63.9458 53.3964C63.5149 53.3099 63.0685 53.3549 62.6629 53.5257C62.2573 53.6966 61.9108 53.9856 61.6673 54.3563C61.4237 54.7269 61.294 55.1624 61.2946 55.6078C61.2946 56.2049 61.5285 56.7775 61.9448 57.1997C62.3611 57.6219 62.9258 57.8591 63.5145 57.8591V57.8561ZM65.5904 50.2869C65.9558 50.2857 66.3126 50.1747 66.6157 49.9679C66.9189 49.7611 67.1548 49.4678 67.2937 49.1251C67.4325 48.7824 67.4681 48.4056 67.3959 48.0424C67.3237 47.6792 67.1469 47.3458 66.8879 47.0845C66.6289 46.8231 66.2994 46.6455 65.9409 46.574C65.5824 46.5025 65.2111 46.5404 64.8738 46.6829C64.5365 46.8254 64.2485 47.0661 64.0461 47.3745C63.8436 47.683 63.7359 48.0453 63.7365 48.4159C63.7381 48.9132 63.9342 49.3895 64.2818 49.7403C64.6294 50.0911 65.1001 50.2877 65.5904 50.2869ZM64.3305 42.3374C64.6957 42.3362 65.0524 42.2252 65.3555 42.0186C65.6586 41.8119 65.8945 41.5188 66.0335 41.1763C66.1724 40.8337 66.2081 40.4571 66.1362 40.094C66.0642 39.7309 65.8877 39.3975 65.629 39.136C65.3704 38.8746 65.0411 38.6967 64.6828 38.6249C64.3245 38.553 63.9532 38.5905 63.6159 38.7325C63.2786 38.8745 62.9904 39.1147 62.7876 39.4228C62.5848 39.7308 62.4766 40.0929 62.4766 40.4633C62.477 40.7101 62.5253 40.9543 62.6189 41.1821C62.7125 41.4099 62.8494 41.6168 63.0219 41.7908C63.1943 41.9649 63.399 42.1027 63.624 42.1965C63.8491 42.2903 64.0902 42.3382 64.3335 42.3374H64.3305ZM85.8156 77.2628C86.1809 77.2616 86.5377 77.1506 86.8409 76.9438C87.1441 76.7371 87.38 76.4438 87.5188 76.1011C87.6577 75.7583 87.6933 75.3816 87.621 75.0184C87.5488 74.6551 87.3721 74.3218 87.1131 74.0604C86.8541 73.7991 86.5245 73.6214 86.1661 73.55C85.8076 73.4785 85.4362 73.5164 85.099 73.6589C84.7617 73.8014 84.4737 74.042 84.2712 74.3505C84.0688 74.6589 83.9611 75.0213 83.9617 75.3918C83.9621 75.6382 84.0103 75.8821 84.1038 76.1095C84.1972 76.3369 84.3339 76.5434 84.5061 76.7172C84.6783 76.891 84.8826 77.0286 85.1073 77.1222C85.332 77.2159 85.5727 77.2636 85.8156 77.2628ZM68.5513 44.5278C68.8728 44.5272 69.1868 44.43 69.4538 44.2485C69.7208 44.0669 69.9287 43.8092 70.0513 43.5078C70.1739 43.2065 70.2057 42.875 70.1426 42.5554C70.0796 42.2357 69.9245 41.9422 69.697 41.7119C69.4694 41.4816 69.1797 41.3248 68.8644 41.2614C68.5491 41.1981 68.2223 41.2309 67.9254 41.3558C67.6285 41.4807 67.3747 41.692 67.1962 41.9631C67.0177 42.2342 66.9224 42.5529 66.9224 42.8789C66.9224 43.0957 66.9645 43.3104 67.0464 43.5106C67.1283 43.7109 67.2484 43.8928 67.3997 44.0459C67.551 44.1991 67.7306 44.3205 67.9282 44.4032C68.1258 44.4859 68.3375 44.5282 68.5513 44.5278ZM71.6652 47.0651C71.9278 47.0639 72.1841 46.9838 72.4019 46.835C72.6196 46.6862 72.789 46.4753 72.8887 46.2289C72.9883 45.9825 73.0138 45.7118 72.9618 45.4507C72.9099 45.1897 72.7829 44.9501 72.5968 44.7622C72.4107 44.5744 72.1739 44.4466 71.9162 44.3951C71.6586 44.3436 71.3917 44.3706 71.1492 44.4728C70.9068 44.575 70.6996 44.7477 70.5538 44.9692C70.408 45.1907 70.3302 45.4511 70.3302 45.7174C70.3306 45.8947 70.3655 46.0703 70.4328 46.234C70.5001 46.3978 70.5985 46.5465 70.7225 46.6716C70.8464 46.7968 70.9935 46.8959 71.1552 46.9634C71.317 47.031 71.4903 47.0655 71.6652 47.0651ZM69.8862 52.4621C70.2077 52.4615 70.5218 52.3643 70.7887 52.1827C71.0557 52.0012 71.2637 51.7435 71.3863 51.4421C71.5089 51.1407 71.5406 50.8093 71.4776 50.4896C71.4145 50.17 71.2594 49.8765 71.0319 49.6462C70.8044 49.4159 70.5147 49.2591 70.1994 49.1957C69.884 49.1324 69.5573 49.1652 69.2603 49.2901C68.9634 49.415 68.7097 49.6263 68.5311 49.8974C68.3526 50.1685 68.2573 50.4872 68.2573 50.8132C68.2573 51.03 68.2995 51.2447 68.3814 51.4449C68.4633 51.6452 68.5833 51.8271 68.7346 51.9802C68.8859 52.1334 69.0655 52.2548 69.2631 52.3375C69.4607 52.4202 69.6725 52.4625 69.8862 52.4621ZM69.0733 59.0548C69.4385 59.0535 69.7952 58.9426 70.0983 58.736C70.4014 58.5293 70.6373 58.2362 70.7763 57.8937C70.9152 57.5511 70.9509 57.1745 70.879 56.8114C70.807 56.4482 70.6305 56.1149 70.3718 55.8534C70.1132 55.5919 69.7839 55.414 69.4256 55.3422C69.0673 55.2704 68.6961 55.3079 68.3587 55.4499C68.0214 55.5919 67.7332 55.8321 67.5304 56.1402C67.3276 56.4482 67.2194 56.8103 67.2194 57.1807C67.2198 57.4272 67.268 57.6712 67.3614 57.8988C67.4548 58.1264 67.5915 58.3331 67.7636 58.5071C67.9358 58.6811 68.14 58.8191 68.3647 58.913C68.5895 59.007 68.8302 59.0552 69.0733 59.0548ZM69.1453 73.1436C69.5106 73.143 69.8676 73.0326 70.1711 72.8263C70.4746 72.62 70.711 72.3271 70.8504 71.9846C70.9898 71.6421 71.026 71.2654 70.9543 70.9021C70.8827 70.5387 70.7065 70.2051 70.4479 69.9433C70.1893 69.6815 69.8601 69.5033 69.5017 69.4313C69.1433 69.3592 68.7719 69.3965 68.4344 69.5384C68.0969 69.6804 67.8085 69.9206 67.6056 70.2287C67.4027 70.5368 67.2944 70.899 67.2944 71.2695C67.2952 71.7668 67.4905 72.2435 67.8375 72.5949C68.1846 72.9462 68.6549 73.1436 69.1453 73.1436ZM74.1851 76.7396C74.5064 76.7384 74.8202 76.6406 75.0868 76.4587C75.3533 76.2768 75.5608 76.0189 75.683 75.7175C75.8051 75.4161 75.8364 75.0847 75.773 74.7653C75.7096 74.4458 75.5543 74.1526 75.3267 73.9226C75.099 73.6926 74.8093 73.5361 74.4941 73.473C74.1788 73.4099 73.8522 73.4429 73.5555 73.5678C73.2587 73.6928 73.0051 73.9042 72.8267 74.1752C72.6483 74.4462 72.5531 74.7648 72.5531 75.0907C72.5531 75.3075 72.5953 75.5221 72.6772 75.7224C72.7591 75.9226 72.8791 76.1045 73.0304 76.2577C73.1817 76.4109 73.3613 76.5322 73.5589 76.6149C73.7565 76.6976 73.9683 76.74 74.1821 76.7396H74.1851ZM77.6649 80.6367C77.9275 80.6355 78.1839 80.5555 78.4016 80.4067C78.6194 80.2578 78.7888 80.0469 78.8884 79.8006C78.9881 79.5542 79.0136 79.2834 78.9616 79.0224C78.9096 78.7613 78.7826 78.5218 78.5965 78.3339C78.4104 78.146 78.1736 78.0183 77.916 77.9668C77.6584 77.9152 77.3915 77.9423 77.149 78.0445C76.9065 78.1466 76.6993 78.3194 76.5535 78.5409C76.4078 78.7624 76.33 79.0227 76.33 79.289C76.3308 79.6467 76.4715 79.9895 76.7212 80.2422C76.9709 80.4949 77.3122 80.6368 77.6649 80.6367ZM81.5888 79.5811C81.9102 79.5805 82.2243 79.4833 82.4913 79.3017C82.7583 79.1202 82.9662 78.8624 83.0888 78.5611C83.2114 78.2597 83.2432 77.9283 83.1801 77.6086C83.117 77.2889 82.9619 76.9954 82.7344 76.7651C82.5069 76.5348 82.2172 76.3781 81.9019 76.3147C81.5865 76.2513 81.2598 76.2841 80.9629 76.409C80.6659 76.5339 80.4122 76.7453 80.2336 77.0164C80.0551 77.2875 79.9598 77.6062 79.9598 77.9322C79.9598 78.149 80.002 78.3636 80.0839 78.5639C80.1658 78.7641 80.2858 78.946 80.4371 79.0992C80.5884 79.2524 80.768 79.3737 80.9656 79.4564C81.1632 79.5391 81.375 79.5815 81.5888 79.5811ZM78.4149 74.4183C78.7802 74.4171 79.1371 74.3061 79.4402 74.0993C79.7434 73.8925 79.9793 73.5992 80.1182 73.2565C80.257 72.9138 80.2926 72.537 80.2204 72.1738C80.1481 71.8106 79.9714 71.4773 79.7124 71.2159C79.4534 70.9545 79.1239 70.7769 78.7654 70.7054C78.4069 70.6339 78.0355 70.6718 77.6983 70.8143C77.361 70.9568 77.073 71.1975 76.8705 71.5059C76.6681 71.8144 76.5604 72.1768 76.561 72.5473C76.5614 72.7937 76.6097 73.0375 76.7031 73.2649C76.7965 73.4924 76.9332 73.6989 77.1054 73.8726C77.2776 74.0464 77.4819 74.1841 77.7066 74.2777C77.9313 74.3713 78.172 74.4191 78.4149 74.4183ZM73.2911 69.3985C73.7302 69.3985 74.1594 69.2665 74.5244 69.0191C74.8895 68.7717 75.174 68.4201 75.342 68.0088C75.5101 67.5974 75.554 67.1447 75.4684 66.708C75.3827 66.2713 75.1713 65.8702 74.8608 65.5553C74.5504 65.2405 74.1548 65.0261 73.7242 64.9392C73.2936 64.8523 72.8472 64.8969 72.4416 65.0673C72.036 65.2377 71.6893 65.5263 71.4453 65.8965C71.2014 66.2667 71.0712 66.702 71.0712 67.1472C71.0712 67.7443 71.3051 68.3169 71.7214 68.7391C72.1377 69.1613 72.7024 69.3985 73.2911 69.3985ZM89.9614 73.5969C90.4005 73.5969 90.8297 73.4649 91.1947 73.2175C91.5598 72.9701 91.8443 72.6185 92.0123 72.2071C92.1804 71.7958 92.2243 71.3431 92.1387 70.9064C92.053 70.4697 91.8416 70.0685 91.5311 69.7537C91.2207 69.4388 90.8251 69.2244 90.3945 69.1376C89.9639 69.0507 89.5175 69.0953 89.1119 69.2657C88.7063 69.4361 88.3596 69.7246 88.1156 70.0948C87.8717 70.4651 87.7415 70.9003 87.7415 71.3456C87.7423 71.9424 87.9764 72.5146 88.3926 72.9366C88.8087 73.3586 89.3729 73.5961 89.9614 73.5969ZM82.4797 70.7463C82.9189 70.7463 83.3482 70.6142 83.7133 70.3666C84.0785 70.1191 84.363 69.7673 84.5309 69.3558C84.6989 68.9443 84.7427 68.4914 84.6568 68.0546C84.5709 67.6179 84.3591 67.2167 84.0484 66.902C83.7376 66.5873 83.3418 66.3731 82.911 66.2866C82.4802 66.2 82.0337 66.2451 81.6281 66.4159C81.2225 66.5868 80.876 66.8758 80.6325 67.2464C80.3889 67.6171 80.2592 68.0526 80.2598 68.498C80.2598 69.0951 80.4937 69.6677 80.91 70.0899C81.3263 70.5121 81.891 70.7493 82.4797 70.7493V70.7463ZM93.6663 68.1968C94.1784 68.1962 94.6789 68.0416 95.1044 67.7524C95.5299 67.4633 95.8612 67.0527 96.0565 66.5725C96.2518 66.0924 96.3023 65.5643 96.2016 65.055C96.1009 64.5458 95.8535 64.0782 95.4907 63.7116C95.1279 63.345 94.666 63.0957 94.1635 62.9953C93.661 62.895 93.1405 62.948 92.6677 63.1477C92.1949 63.3475 91.7912 63.6849 91.5076 64.1174C91.2239 64.5499 91.0732 65.058 91.0744 65.5774C91.076 66.2732 91.3498 66.9399 91.8358 67.4311C92.3218 67.9222 92.9802 68.1976 93.6663 68.1968ZM76.924 64.0015C77.436 64.0015 77.9365 63.8475 78.3623 63.559C78.788 63.2705 79.1198 62.8605 79.3158 62.3807C79.5117 61.901 79.563 61.3731 79.4631 60.8638C79.3632 60.3545 79.1166 59.8867 78.7546 59.5195C78.3925 59.1523 77.9312 58.9023 77.429 58.801C76.9268 58.6997 76.4063 58.7517 75.9332 58.9504C75.4602 59.1491 75.0558 59.4856 74.7714 59.9174C74.4869 60.3491 74.3351 60.8567 74.3351 61.376C74.3359 62.0721 74.6089 62.7394 75.0942 63.2316C75.5796 63.7238 76.2376 64.0007 76.924 64.0015ZM86.1846 65.2732C86.6967 65.2726 87.1972 65.1179 87.6227 64.8288C88.0482 64.5397 88.3795 64.1291 88.5748 63.6489C88.7701 63.1688 88.8206 62.6406 88.7199 62.1314C88.6192 61.6221 88.3718 61.1546 88.009 60.788C87.6462 60.4213 87.1844 60.1721 86.6818 60.0717C86.1793 59.9713 85.6588 60.0244 85.186 60.2241C84.7132 60.4238 84.3095 60.7613 84.0259 61.1938C83.7422 61.6263 83.5915 62.1344 83.5927 62.6538C83.5943 63.3496 83.8681 64.0163 84.3541 64.5074C84.8401 64.9986 85.4985 65.274 86.1846 65.2732ZM96.3332 61.0049C96.918 61.0043 97.4896 60.8278 97.9756 60.4978C98.4617 60.1679 98.8403 59.6992 99.0637 59.151C99.2871 58.6028 99.3453 57.9998 99.2308 57.4181C99.1164 56.8364 98.8344 56.3022 98.4206 55.883C98.0068 55.4638 97.4798 55.1784 96.9061 55.0629C96.3324 54.9474 95.7378 55.007 95.1975 55.2341C94.6572 55.4612 94.1954 55.8457 93.8706 56.3389C93.5457 56.8322 93.3723 57.412 93.3723 58.0052C93.3731 58.801 93.6854 59.564 94.2406 60.1265C94.7957 60.6889 95.5484 61.0049 96.3332 61.0049ZM88.9235 58.0812C89.5083 58.08 90.0797 57.903 90.5654 57.5725C91.0511 57.242 91.4293 56.7729 91.6522 56.2245C91.875 55.6761 91.9326 55.073 91.8176 54.4915C91.7025 53.9099 91.42 53.376 91.0058 52.9572C90.5916 52.5384 90.0643 52.2536 89.4905 52.1387C88.9167 52.0238 88.3221 52.0839 87.7821 52.3116C87.242 52.5393 86.7806 52.9243 86.4562 53.4178C86.1318 53.9114 85.959 54.4914 85.9596 55.0846C85.9604 55.4789 86.0377 55.8692 86.1873 56.2332C86.3368 56.5972 86.5555 56.9278 86.831 57.206C87.1065 57.4843 87.4334 57.7048 87.7929 57.855C88.1525 58.0051 88.5376 58.082 88.9265 58.0812H88.9235ZM79.6658 56.8095C80.2506 56.8083 80.8219 56.6314 81.3075 56.301C81.7931 55.9707 82.1713 55.5018 82.3943 54.9536C82.6172 54.4053 82.675 53.8024 82.5602 53.2209C82.4453 52.6394 82.1632 52.1055 81.7493 51.6866C81.3354 51.2677 80.8083 50.9826 80.2347 50.8674C79.6611 50.7521 79.0667 50.8119 78.5265 51.0391C77.9864 51.2663 77.5248 51.6508 77.2 52.1439C76.8753 52.6371 76.702 53.2168 76.702 53.8098C76.7024 54.2042 76.7793 54.5946 76.9285 54.9587C77.0777 55.3229 77.2961 55.6537 77.5713 55.9322C77.8465 56.2108 78.1732 56.4316 78.5325 56.5821C78.8919 56.7327 79.277 56.8099 79.6658 56.8095ZM90.1114 49.2373C90.7982 49.2361 91.4693 49.0284 92.0397 48.6406C92.6102 48.2528 93.0545 47.7021 93.3166 47.0583C93.5786 46.4144 93.6465 45.7063 93.5118 45.0233C93.3771 44.3403 93.0457 43.7131 92.5597 43.2211C92.0736 42.729 91.4546 42.394 90.7809 42.2586C90.1072 42.1232 89.4091 42.1933 88.7746 42.4601C88.1402 42.7269 87.598 43.1785 87.2166 43.7577C86.8351 44.3369 86.6316 45.0178 86.6316 45.7143C86.6331 46.6492 87.0005 47.5453 87.6529 48.2058C88.3053 48.8663 89.1895 49.2373 90.1114 49.2373ZM80.8508 47.8896C81.5375 47.8878 82.2082 47.6796 82.7783 47.2914C83.3484 46.9032 83.7922 46.3523 84.0538 45.7085C84.3153 45.0646 84.3829 44.3565 84.2478 43.6737C84.1127 42.9909 83.7812 42.364 83.295 41.8723C82.8088 41.3805 82.1898 41.0459 81.5162 40.9107C80.8426 40.7755 80.1446 40.8458 79.5103 41.1127C78.8761 41.3796 78.3341 41.8311 77.9528 42.4103C77.5715 42.9894 77.3679 43.6702 77.3679 44.3666C77.3683 44.8296 77.4587 45.2881 77.6337 45.7157C77.8088 46.1433 78.0653 46.5318 78.3884 46.859C78.7115 47.1861 79.095 47.4455 79.517 47.6223C79.939 47.7991 80.3942 47.89 80.8508 47.8896ZM84.3306 96.6727C85.1494 96.6708 85.9493 96.4229 86.6291 95.96C87.3089 95.4972 87.8381 94.8403 88.1498 94.0725C88.4615 93.3047 88.5416 92.4603 88.3802 91.6463C88.2187 90.8322 87.8228 90.085 87.2426 89.4992C86.6623 88.9133 85.9238 88.5151 85.1205 88.3548C84.3171 88.1946 83.4849 88.2796 82.7291 88.599C81.9733 88.9185 81.3279 89.458 80.8745 90.1494C80.4211 90.8408 80.18 91.6531 80.1818 92.4834C80.1858 93.5964 80.6247 94.6624 81.4025 95.4477C82.1802 96.2329 83.2332 96.6735 84.3306 96.6727ZM79.6658 37.3967C80.4841 37.3943 81.2833 37.146 81.9625 36.6832C82.6417 36.2205 83.1705 35.5639 83.482 34.7966C83.7935 34.0292 83.8737 33.1854 83.7127 32.3718C83.5516 31.5583 83.1563 30.8113 82.5769 30.2254C81.9975 29.6394 81.2598 29.2408 80.4571 29.0798C79.6544 28.9188 78.8226 29.0026 78.0668 29.3207C77.3111 29.6389 76.6652 30.177 76.2109 30.8671C75.7565 31.5573 75.514 32.3685 75.514 33.1983C75.5148 33.7505 75.6228 34.297 75.8319 34.8069C76.041 35.3167 76.347 35.7797 76.7325 36.1696C77.1181 36.5594 77.5756 36.8684 78.0788 37.079C78.5821 37.2895 79.1214 37.3975 79.6658 37.3967Z" fill="black"/>
</svg>
