<svg width="127" height="127" viewBox="0 0 127 127" fill="none" xmlns="http://www.w3.org/2000/svg">
<rect x="63.0761" y="0.608887" width="89.2029" height="89.2029" transform="rotate(45 63.0761 0.608887)" fill="#F8F8F8"/>
<rect x="94.0761" y="9.05933" width="89.203" height="89.203" transform="rotate(75 94.0761 9.05933)" fill="#E8E7E7" fill-opacity="0.3"/>
<g clip-path="url(#clip0_1_239)">
<path d="M92.0582 108.727C92.0363 108.727 92.0144 108.725 91.9925 108.725C85.9246 108.513 81.1156 105.606 81.1156 102.048V100.59C81.1156 96.8961 86.3021 93.9011 92.7011 93.9011C99.1001 93.9011 104.286 96.8961 104.286 100.59C104.286 100.972 104.231 101.351 104.123 101.717V101.72" fill="white"/>
<path d="M23.2998 65.4967L17.087 69.0841L16.1941 69.5996C16.1384 69.6322 16.0978 69.6856 16.0815 69.7481C16.0651 69.8106 16.0742 69.877 16.1068 69.9328C16.1395 69.9886 16.1929 70.0291 16.2554 70.0454C16.3179 70.0618 16.3843 70.0527 16.4401 70.0201L22.653 66.4329L23.5457 65.9175C23.6015 65.8848 23.642 65.8314 23.6584 65.7689C23.6747 65.7064 23.6656 65.64 23.633 65.5842C23.6004 65.5285 23.5469 65.4879 23.4845 65.4716C23.422 65.4552 23.3555 65.4643 23.2998 65.4969V65.4967Z" fill="black"/>
<path d="M63.8057 42.1114L56.7582 46.1802L55.7451 46.7645C55.7174 46.7807 55.6932 46.8021 55.6738 46.8276C55.6544 46.8531 55.6402 46.8822 55.632 46.9131C55.6239 46.9441 55.6219 46.9764 55.6262 47.0081C55.6305 47.0399 55.641 47.0705 55.6572 47.0981C55.6733 47.1258 55.6947 47.15 55.7202 47.1694C55.7457 47.1888 55.7748 47.203 55.8057 47.2112C55.8367 47.2193 55.869 47.2213 55.9007 47.217C55.9325 47.2127 55.9631 47.2022 55.9907 47.186L63.0382 43.1173L64.0514 42.5329C64.1071 42.5003 64.1477 42.4469 64.1641 42.3844C64.1804 42.322 64.1714 42.2555 64.1388 42.1998C64.1062 42.144 64.0528 42.1035 63.9903 42.0871C63.9279 42.0707 63.8614 42.0798 63.8057 42.1124V42.1114Z" fill="black"/>
<path d="M100.059 77.0573L104.033 79.351L104.602 79.6792C104.658 79.7118 104.724 79.721 104.787 79.7046C104.849 79.6882 104.902 79.6477 104.935 79.5919C104.968 79.5362 104.977 79.4697 104.96 79.4072C104.944 79.3447 104.904 79.2913 104.848 79.2587L100.874 76.965L100.305 76.6368C100.249 76.6042 100.183 76.5951 100.12 76.6115C100.058 76.6279 100.004 76.6684 99.9718 76.7242C99.9392 76.7799 99.9301 76.8464 99.9465 76.9088C99.9629 76.9713 100.003 77.0247 100.059 77.0573Z" fill="black"/>
<path d="M56.7173 52.0409L63.0238 55.6804L63.9116 56.1918C63.9674 56.2243 64.0338 56.2334 64.0962 56.217C64.1587 56.2007 64.2121 56.1601 64.2447 56.1044C64.2773 56.0486 64.2864 55.9822 64.27 55.9197C64.2536 55.8572 64.213 55.8038 64.1573 55.7713L57.8508 52.1317L56.963 51.6204C56.9354 51.6043 56.9049 51.5937 56.8732 51.5894C56.8415 51.5851 56.8093 51.587 56.7784 51.5951C56.7474 51.6033 56.7184 51.6174 56.6929 51.6367C56.6675 51.6561 56.646 51.6802 56.6299 51.7078C56.6138 51.7354 56.6032 51.766 56.5989 51.7976C56.5946 51.8293 56.5965 51.8616 56.6046 51.8925C56.6128 51.9234 56.6269 51.9524 56.6462 51.9779C56.6656 52.0034 56.6897 52.0248 56.7173 52.0409Z" fill="black"/>
<path d="M108.431 66.8678L102.926 70.0459L99.0482 72.286L93.2253 75.6487L88.924 78.1323L83.9428 81.0072L78.8051 83.973L74.6302 86.3836L68.7335 89.7888L64.9939 91.9484L58.7162 95.5735L58.2022 95.8706C58.1745 95.8867 58.1504 95.9081 58.131 95.9336C58.1117 95.9591 58.0976 95.9881 58.0895 96.019C58.0813 96.0499 58.0794 96.0822 58.0837 96.1139C58.0881 96.1455 58.0986 96.1761 58.1147 96.2037C58.1309 96.2313 58.1523 96.2554 58.1778 96.2748C58.2032 96.2941 58.2323 96.3082 58.2632 96.3164C58.2941 96.3245 58.3263 96.3264 58.358 96.3221C58.3897 96.3177 58.4202 96.3072 58.4478 96.2911L63.8938 93.1461L67.4155 91.1125L74.0404 87.2867L77.3778 85.3599L83.7298 81.6927L87.4226 79.5604L93.2487 76.1968L97.5269 73.7268L102.534 70.8355L108.072 67.6387L108.677 67.289C108.733 67.2564 108.774 67.203 108.79 67.1405C108.806 67.078 108.797 67.0116 108.765 66.9558C108.732 66.9001 108.679 66.8595 108.616 66.8432C108.554 66.8268 108.487 66.8359 108.431 66.8685V66.8678Z" fill="black"/>
<path d="M67.4681 77.8834L65.4305 79.0604L60.5102 81.9025L54.5816 85.327L49.4537 88.2891L47.7492 89.2737C47.485 89.4262 47.2016 89.5642 46.9491 89.7364C46.9381 89.7439 46.926 89.75 46.9143 89.7566C46.8867 89.7727 46.8625 89.7942 46.8432 89.8197C46.8238 89.8451 46.8097 89.8742 46.8016 89.9051C46.7935 89.9361 46.7916 89.9683 46.7959 90C46.8003 90.0317 46.8108 90.0622 46.827 90.0898C46.8431 90.1174 46.8646 90.1416 46.89 90.1609C46.9155 90.1802 46.9446 90.1944 46.9755 90.2025C47.0065 90.2106 47.0387 90.2125 47.0704 90.2082C47.1021 90.2038 47.1326 90.1933 47.1602 90.1771L49.1975 89.0003L54.118 86.158L60.0466 82.7335L65.1746 79.7716L66.879 78.787C67.143 78.6343 67.4264 78.4962 67.6789 78.3243C67.6899 78.3168 67.7033 78.3109 67.7137 78.3041C67.7695 78.2715 67.81 78.2181 67.8264 78.1557C67.8428 78.0932 67.8337 78.0268 67.8012 77.971C67.7686 77.9152 67.7152 77.8747 67.6527 77.8583C67.5902 77.8419 67.5238 77.8508 67.4681 77.8834Z" fill="black"/>
<path d="M44.1638 78.712C42.544 79.6475 40.9246 80.5831 39.3053 81.5187L34.9519 84.0304L32.2769 85.5751C32.2211 85.6077 32.1806 85.6611 32.1642 85.7236C32.1479 85.7861 32.157 85.8525 32.1896 85.9083C32.2222 85.9641 32.2756 86.0046 32.3381 86.021C32.4006 86.0373 32.4671 86.0282 32.5228 85.9956L37.3087 83.2329L41.8503 80.611L44.4107 79.1325C44.4664 79.0999 44.507 79.0465 44.5234 78.984C44.5398 78.9216 44.5307 78.8551 44.4981 78.7994C44.4655 78.7436 44.4121 78.7031 44.3496 78.6867C44.2872 78.6703 44.2207 78.6794 44.165 78.712H44.1638Z" fill="black"/>
<path d="M27.3432 75.794L22.0933 78.825L21.3416 79.2589C21.2858 79.2915 21.2453 79.345 21.2289 79.4074C21.2126 79.4699 21.2217 79.5364 21.2543 79.5921C21.2869 79.6479 21.3403 79.6884 21.4028 79.7048C21.4653 79.7212 21.5318 79.712 21.5875 79.6794L26.8385 76.6489L27.5899 76.215C27.6175 76.1989 27.6417 76.1775 27.661 76.152C27.6803 76.1265 27.6945 76.0975 27.7026 76.0666C27.7107 76.0356 27.7126 76.0034 27.7083 75.9717C27.704 75.94 27.6934 75.9095 27.6773 75.8819C27.6612 75.8543 27.6398 75.8301 27.6143 75.8108C27.5888 75.7915 27.5598 75.7773 27.5289 75.7692C27.4979 75.7611 27.4657 75.7591 27.434 75.7635C27.4023 75.7678 27.3718 75.7784 27.3442 75.7945L27.3432 75.794Z" fill="black"/>
<path d="M65.6251 53.6919L61.0196 56.3509L60.3605 56.7315C60.3329 56.7476 60.3087 56.769 60.2894 56.7945C60.27 56.82 60.2559 56.849 60.2478 56.8799C60.2397 56.9109 60.2377 56.9431 60.2421 56.9748C60.2464 57.0064 60.2569 57.037 60.2731 57.0646C60.2892 57.0922 60.3106 57.1164 60.3361 57.1357C60.3616 57.155 60.3906 57.1692 60.4215 57.1773C60.4524 57.1854 60.4847 57.1873 60.5164 57.183C60.548 57.1787 60.5786 57.1681 60.6062 57.152L65.2116 54.493L65.8707 54.1125C65.8984 54.0963 65.9225 54.0749 65.9419 54.0494C65.9612 54.024 65.9753 53.9949 65.9834 53.964C65.9916 53.9331 65.9935 53.9009 65.9892 53.8692C65.9848 53.8375 65.9743 53.807 65.9582 53.7794C65.942 53.7518 65.9206 53.7276 65.8951 53.7083C65.8697 53.6889 65.8406 53.6748 65.8097 53.6667C65.7788 53.6586 65.7466 53.6566 65.7149 53.6609C65.6832 53.6653 65.6527 53.6758 65.6251 53.6919Z" fill="black"/>
<path d="M66.1225 94.7938L60.7328 91.6809L57.2878 89.6918L50.6672 85.8707C49.608 85.2595 48.549 84.648 47.4901 84.0362L40.9889 80.2815C39.8698 79.6353 38.7506 78.9892 37.6313 78.3431L31.4161 74.754L27.7289 72.6254L21.9608 69.2954L17.464 66.6992L16.4413 66.1078C16.4137 66.0916 16.3831 66.0811 16.3515 66.0767C16.3198 66.0724 16.2875 66.0743 16.2566 66.0824C16.2256 66.0905 16.1966 66.1046 16.1711 66.124C16.1456 66.1433 16.1242 66.1675 16.1081 66.1951C16.0919 66.2227 16.0814 66.2532 16.077 66.2849C16.0727 66.3166 16.0746 66.3488 16.0827 66.3798C16.0908 66.4107 16.1049 66.4397 16.1242 66.4652C16.1436 66.4907 16.1677 66.5121 16.1954 66.5283L21.2717 69.4592C22.7521 70.3144 24.2327 71.1692 25.7133 72.0237L30.8157 74.97L35.6593 77.7663C37.1343 78.618 38.6093 79.4696 40.0843 80.321L45.5996 83.5066C46.8971 84.2561 48.1947 85.0055 49.4924 85.7548L55.5198 89.2338C56.729 89.9318 57.9384 90.6299 59.1479 91.3279L65.3672 94.9199L65.8785 95.2155C65.9343 95.2481 66.0007 95.2572 66.0632 95.2409C66.1257 95.2245 66.1791 95.184 66.2118 95.1282C66.2444 95.0724 66.2535 95.006 66.2371 94.9435C66.2207 94.881 66.1802 94.8276 66.1245 94.795L66.1225 94.7938Z" fill="black"/>
<path d="M54.8505 76.2145L57.6226 77.8152L64.2802 81.6598L72.3345 86.3105L79.297 90.3311L81.5912 91.6559C81.9515 91.8641 82.3071 92.0974 82.6794 92.2841C82.6954 92.2922 82.7108 92.3024 82.7263 92.3114C82.7821 92.344 82.8485 92.3531 82.911 92.3368C82.9735 92.3204 83.027 92.2799 83.0596 92.2241C83.0922 92.1683 83.1013 92.1019 83.0849 92.0394C83.0686 91.9769 83.028 91.9235 82.9723 91.8909L80.2001 90.2902L73.5425 86.4456L65.4882 81.7949L58.5255 77.7743L56.2316 76.4495C55.8709 76.2413 55.5154 76.008 55.1434 75.8213C55.1273 75.813 55.112 75.803 55.0961 75.794C55.0404 75.7614 54.974 75.7523 54.9115 75.7687C54.849 75.7851 54.7956 75.8257 54.763 75.8814C54.7305 75.9372 54.7214 76.0036 54.7378 76.0661C54.7542 76.1285 54.7947 76.1819 54.8505 76.2145Z" fill="black"/>
<path d="M100.325 64.578L104.44 66.9543L107.671 68.8194L109.713 69.9984C109.769 70.031 109.836 70.0402 109.898 70.0238C109.961 70.0074 110.014 69.9669 110.047 69.9111C110.079 69.8554 110.088 69.7889 110.072 69.7264C110.056 69.664 110.015 69.6105 109.959 69.5779L105.961 67.2701C104.771 66.5833 103.58 65.896 102.39 65.2084L100.568 64.1575C100.513 64.1301 100.449 64.1249 100.39 64.1427C100.331 64.1606 100.281 64.2003 100.25 64.2538C100.219 64.3073 100.209 64.3705 100.223 64.4307C100.237 64.4909 100.274 64.5436 100.325 64.578Z" fill="black"/>
<path d="M60.1426 41.3796L65.8861 44.6965L69.6359 46.8619L75.1569 50.0487L82.9214 54.5309C84.4369 55.4058 85.9361 56.3216 87.473 57.1582C87.4974 57.1714 87.5205 57.1858 87.5444 57.1994C87.6001 57.232 87.6665 57.2411 87.729 57.2247C87.7915 57.2083 87.8449 57.1677 87.8775 57.112C87.91 57.0562 87.9191 56.9898 87.9027 56.9273C87.8863 56.8649 87.8458 56.8115 87.79 56.7789L84.002 54.5923L76.3115 50.1527L70.24 46.6481L67.0436 44.8024L60.528 41.0397L60.3885 40.9591C60.3327 40.9265 60.2663 40.9174 60.2038 40.9337C60.1413 40.9501 60.0879 40.9906 60.0553 41.0464C60.0226 41.1022 60.0135 41.1686 60.0299 41.2311C60.0463 41.2936 60.0868 41.347 60.1426 41.3796Z" fill="black"/>
<path d="M82.1778 29.9439C79.6766 28.4983 76.8806 26.8861 74.0838 25.2717C71.2907 26.8846 68.4976 28.4949 65.9998 29.9388C65.9998 43.4636 65.9998 56.9909 65.9998 56.9924C68.7513 58.5858 74.046 61.6416 74.0838 61.6631C76.5845 60.2204 79.381 58.6053 82.1778 56.9902V29.9439Z" fill="white"/>
<path d="M82.1451 35.2498C79.3644 36.8568 76.584 38.4609 74.094 39.9005C74.0806 39.9088 74.0643 39.9168 74.0509 39.9248C74.0105 39.9005 73.973 39.8791 73.9353 39.8576C71.4777 38.439 68.7401 36.8561 65.9998 35.2734V38.7731C68.7401 40.3558 71.4784 41.9385 73.9353 43.3574C73.973 43.3788 74.0105 43.4005 74.0509 43.4246C74.0643 43.4165 74.0806 43.4085 74.094 43.4002C76.584 41.96 79.3644 40.3565 82.1451 38.7495H82.1882V35.2498H82.1451Z" fill="black"/>
<path d="M82.1451 42.2996C79.3644 43.9066 76.584 45.511 74.094 46.9503C74.0806 46.9583 74.0643 46.9664 74.0509 46.9746C74.0105 46.9503 73.973 46.9289 73.9353 46.9074C71.4777 45.4888 68.7401 43.9061 65.9998 42.3234V45.8224C68.7401 47.4051 71.4784 48.9878 73.9353 50.4064C73.973 50.4281 74.0105 50.4495 74.0509 50.4739C74.0643 50.4656 74.0806 50.4576 74.094 50.4495C76.584 49.0095 79.3644 47.4059 82.1451 45.7988H82.1882V42.2996H82.1451Z" fill="black"/>
<path d="M82.1451 49.3499C79.3644 50.9569 76.584 52.561 74.094 54.0006C74.0806 54.0089 74.0643 54.0169 74.0509 54.0249C74.0105 54.0006 73.973 53.9792 73.9353 53.9577C71.4777 52.5391 68.7401 50.9562 65.9998 49.3735V52.8727C68.7401 54.4554 71.4784 56.0381 73.9353 57.457C73.973 57.4784 74.0105 57.5001 74.0509 57.5242C74.0643 57.5161 74.0806 57.5081 74.094 57.4998C76.584 56.0596 79.3644 54.4562 82.1451 52.8491H82.1882V49.3499H82.1451Z" fill="black"/>
<path d="M81.9321 56.5689C79.2342 58.1272 76.5361 59.6849 73.8379 61.2418H74.3295C72.3309 60.0944 70.335 58.9424 68.3417 57.7856L66.2353 56.5681C65.6915 56.254 65.2006 57.0953 65.7436 57.4092C67.7658 58.5779 69.7883 59.7457 71.8113 60.9126C72.4408 61.2758 73.0702 61.6391 73.6996 62.0022C73.7426 62.0265 73.785 62.0548 73.8296 62.0772C74.1865 62.2571 74.5011 61.9832 74.8018 61.8093L77.0512 60.511L82.4237 57.4089C82.9662 57.0955 82.4763 56.2535 81.9321 56.5679V56.5689Z" fill="#211715"/>
<path d="M65.7541 53.2937C67.966 54.5716 70.1778 55.8495 72.3896 57.1275L73.1174 57.5478C73.3555 57.7063 73.6048 57.8474 73.8634 57.9698C74.1505 58.0825 74.3821 57.8967 74.6212 57.7582L75.4308 57.2902C76.4911 56.6774 77.5517 56.0647 78.6125 55.452C79.8722 54.7246 81.1316 53.9972 82.3908 53.2696C82.9336 52.956 82.4437 52.114 81.8994 52.4286C79.2023 53.9869 76.5202 55.577 73.8052 57.1037H74.2968C71.626 55.5317 68.9293 54.0023 66.2457 52.4529C65.702 52.1391 65.2109 52.9801 65.7541 53.2937Z" fill="#211715"/>
<path d="M65.7541 49.7945C67.966 51.0721 70.1778 52.35 72.3896 53.628L73.1174 54.0483C73.3554 54.207 73.6048 54.3481 73.8634 54.4705C74.1505 54.5832 74.3821 54.3975 74.6212 54.2589L75.4308 53.7909C76.4911 53.1781 77.5517 52.5654 78.6125 51.9528C79.8722 51.2255 81.1316 50.4981 82.3908 49.7703C82.9336 49.4567 82.4437 48.6147 81.8994 48.9293C79.2023 50.4877 76.5202 52.0777 73.8052 53.6044H74.2968C71.626 52.0324 68.9293 50.503 66.2457 48.9537C65.702 48.6396 65.2109 49.4808 65.7541 49.7945Z" fill="#211715"/>
<path d="M65.7541 46.2437C67.966 47.5212 70.1778 48.7991 72.3896 50.0772L73.1174 50.4975C73.3554 50.6561 73.6048 50.7972 73.8634 50.9195C74.1505 51.0322 74.3821 50.8464 74.6212 50.7081L75.4308 50.2401C76.4911 49.627 77.5517 49.0143 78.6125 48.402C79.8722 47.6748 81.1316 46.9472 82.3908 46.2193C82.9336 45.9059 82.4437 45.0639 81.8994 45.3785C79.2023 46.9369 76.5202 48.5269 73.8052 50.0536H74.2968C71.626 48.4816 68.9293 46.9522 66.2457 45.4029C65.702 45.0888 65.2109 45.9298 65.7541 46.2437Z" fill="#211715"/>
<path d="M65.7541 42.7445C67.966 44.0222 70.1778 45.2999 72.3896 46.5774L73.1174 46.9977C73.3555 47.1562 73.6048 47.2972 73.8634 47.4196C74.1505 47.5324 74.3821 47.3466 74.6212 47.2083L75.4308 46.74C76.4919 46.1284 77.5525 45.516 78.6125 44.9029C79.8722 44.1753 81.1316 43.4478 82.3908 42.7202C82.9336 42.4068 82.4437 41.5648 81.8994 41.8792C79.2023 43.4375 76.5202 45.0275 73.8052 46.5543H74.2968C71.626 44.9825 68.9293 43.4531 66.2457 41.9035C65.702 41.5894 65.2109 42.4307 65.7541 42.7445Z" fill="#211715"/>
<path d="M65.7541 39.1936C67.966 40.4715 70.1778 41.7494 72.3896 43.0274L73.1174 43.4477C73.3555 43.6062 73.6048 43.7473 73.8634 43.8697C74.1505 43.9824 74.3821 43.7966 74.6212 43.6581L75.4308 43.1901C76.4911 42.5773 77.5517 41.9646 78.6125 41.3519C79.8722 40.6246 81.1316 39.8971 82.3908 39.1695C82.9336 38.8559 82.4437 38.0139 81.8994 38.3285C79.2023 39.8868 76.5202 41.4769 73.8052 43.0036H74.2968C71.626 41.4318 68.9293 39.9022 66.2457 38.3528C65.702 38.0387 65.2109 38.88 65.7541 39.1936Z" fill="#211715"/>
<path d="M65.7541 35.6944C67.966 36.972 70.1778 38.2499 72.3896 39.5279L73.1174 39.9482C73.3554 40.1069 73.6048 40.248 73.8634 40.3704C74.1505 40.4831 74.3821 40.2974 74.6212 40.1588L75.4308 39.6908C76.4911 39.0779 77.5517 38.4651 78.6125 37.8527C79.8722 37.1254 81.1316 36.398 82.3908 35.6702C82.9336 35.3566 82.4437 34.5146 81.8994 34.8292C79.2023 36.3876 76.5202 37.9776 73.8052 39.5043H74.2968C71.626 37.9323 68.9293 36.4029 66.2457 34.8536C65.702 34.5395 65.2109 35.3807 65.7541 35.6944Z" fill="#211715"/>
<path d="M73.607 34.6921V58.0609C73.607 59.1413 73.5676 60.2302 73.607 61.3101C73.607 61.3279 73.607 61.3457 73.607 61.3634C73.607 61.9902 74.581 61.9912 74.581 61.3634V37.9946C74.581 36.9142 74.6204 35.8253 74.581 34.7454C74.581 34.7277 74.581 34.7096 74.581 34.6921C74.581 34.0654 73.607 34.0644 73.607 34.6921Z" fill="#211715"/>
<path d="M81.9423 29.5232C79.2446 31.0815 76.5466 32.6392 73.8483 34.1961H74.3399C71.638 32.6455 68.9399 31.0879 66.2457 29.5232C65.702 29.2091 65.2109 30.0503 65.7541 30.3642C67.9508 31.6331 70.1477 32.9013 72.345 34.1688C72.8347 34.4515 73.3173 34.7617 73.8198 35.021C74.1303 35.1812 74.3485 35.0322 74.6234 34.8749L75.4366 34.4057C76.503 33.7903 77.5691 33.1748 78.6349 32.5593C79.9011 31.8288 81.1678 31.0974 82.4349 30.3652C82.9776 30.0518 82.4877 29.2098 81.9433 29.5241L81.9423 29.5232Z" fill="#211715"/>
<path d="M66.2357 30.3643C68.9328 28.806 71.6309 27.2483 74.33 25.6914H73.8383C76.5363 27.2498 79.2343 28.8074 81.9326 30.3643C82.4763 30.6784 82.9672 29.8372 82.4242 29.5233C79.7266 27.9643 77.0284 26.4067 74.3295 24.8504C74.2547 24.8073 74.1699 24.7847 74.0837 24.7847C73.9974 24.7847 73.9126 24.8073 73.8379 24.8504C71.1399 26.4088 68.4419 27.9664 65.7436 29.5233C65.2011 29.8369 65.691 30.6789 66.2353 30.3643H66.2357Z" fill="#211715"/>
<path d="M81.6908 29.9438V53.6387C81.6908 54.7344 81.6494 55.8408 81.6908 56.9368C81.6908 56.9543 81.6908 56.9721 81.6908 56.9896C81.6908 57.6164 82.6647 57.6174 82.6647 56.9896V33.2933C82.6647 32.1976 82.7061 31.0919 82.6647 29.9964C82.6647 29.9789 82.6647 29.9614 82.6647 29.9438C82.6647 29.3171 81.6908 29.3161 81.6908 29.9438Z" fill="#211715"/>
<path d="M65.5128 29.9438V53.6387C65.5128 54.7344 65.4714 55.8408 65.5128 56.9368C65.5128 56.9543 65.5128 56.9721 65.5128 56.9896C65.5128 57.6164 66.4868 57.6174 66.4868 56.9896V33.2933C66.4868 32.1976 66.5282 31.0919 66.4868 29.9964C66.4868 29.9789 66.4868 29.9614 66.4868 29.9438C66.4868 29.3171 65.5128 29.3161 65.5128 29.9438Z" fill="#211715"/>
<path d="M92.0582 108.24C89.0051 108.127 85.557 107.393 83.2352 105.264C82.4359 104.531 81.768 103.568 81.6282 102.504C81.5698 101.838 81.5616 101.167 81.6038 100.499C81.6179 99.9997 81.7358 99.5088 81.9501 99.0576C82.4721 97.9619 83.4035 97.1203 84.4181 96.4834C85.7283 95.69 87.1643 95.1262 88.6642 94.8162C92.0407 94.0638 95.7601 94.2435 98.9988 95.4933C101.098 96.3034 103.702 97.9675 103.796 100.439C103.805 100.642 103.797 100.846 103.771 101.048C103.711 101.269 103.666 101.493 103.635 101.72C103.635 102.346 104.609 102.347 104.609 101.72C104.64 101.634 104.665 101.547 104.684 101.459C104.71 101.323 104.73 101.185 104.745 101.048C104.77 100.826 104.777 100.602 104.766 100.379C104.75 100.065 104.702 99.7545 104.623 99.4508C104.464 98.8603 104.199 98.3032 103.842 97.8063C102.975 96.6529 101.839 95.7289 100.533 95.1144C97.2298 93.4601 93.3025 93.1049 89.6834 93.6408C86.6941 94.0832 83.2842 95.2812 81.5021 97.8856C81.1487 98.3948 80.8928 98.965 80.7472 99.5675C80.6288 100.249 80.5886 100.942 80.6274 101.632C80.6019 102.272 80.6868 102.91 80.8785 103.521C81.1001 104.13 81.4235 104.697 81.8349 105.198C82.7529 106.344 84.0527 107.175 85.3812 107.767C87.056 108.494 88.8357 108.951 90.6538 109.12C91.1205 109.169 91.5883 109.197 92.057 109.214C92.6838 109.239 92.6828 108.265 92.057 108.24H92.0582Z" fill="#211715"/>
<path d="M46.841 77.1143L25.2774 64.6635L47.1539 52.0315L69.0303 64.663L47.1539 77.2944L46.841 77.1143Z" fill="white"/>
<path d="M47.0869 76.6937L30.4646 67.0962L25.5236 64.2429V65.084L42.4221 55.3269L47.4003 52.4537H46.9087L64.2184 62.4484L68.7851 65.0852V64.2442L51.4749 74.2381L46.9082 76.8749H47.3996L47.0869 76.6942C46.5429 76.3804 46.0521 77.2216 46.5953 77.5353L46.9082 77.7159C46.9829 77.759 47.0676 77.7817 47.1539 77.7817C47.2401 77.7817 47.3248 77.759 47.3996 77.7159L64.298 67.9589L69.2762 65.0845C69.3486 65.0407 69.4084 64.9789 69.4499 64.9053C69.4914 64.8316 69.5132 64.7485 69.5132 64.6639C69.5132 64.5794 69.4914 64.4963 69.4499 64.4226C69.4084 64.3489 69.3486 64.2872 69.2762 64.2434L52.3778 54.4864L47.3998 51.612C47.325 51.569 47.2402 51.5464 47.154 51.5464C47.0677 51.5464 46.983 51.569 46.9082 51.612L29.5982 61.6066L25.0315 64.2429C24.9592 64.2867 24.8994 64.3485 24.8579 64.4221C24.8163 64.4958 24.7945 64.5789 24.7945 64.6635C24.7945 64.748 24.8163 64.8311 24.8579 64.9048C24.8994 64.9785 24.9592 65.0402 25.0315 65.084L42.0488 74.9097L46.5953 77.5348C47.139 77.8489 47.6301 77.0076 47.0869 76.6937Z" fill="#211715"/>
<path d="M47.1539 45.551C49.6838 47.012 52.2137 48.4705 54.4757 49.7781C51.9458 51.239 49.4159 52.7 47.1539 54.0051C47.1198 53.9856 47.0857 53.9662 47.0492 53.9443C44.8139 52.6537 42.323 51.2171 39.832 49.7781C42.0941 48.4705 44.624 47.012 47.1539 45.551Z" fill="white"/>
<path d="M47.1539 64.2927V61.1272C49.4062 59.8246 51.9215 58.3733 54.4368 56.9197H54.4757V60.0851H54.4368C51.9215 61.5388 49.4062 62.99 47.1539 64.2927Z" fill="black"/>
<path d="M47.1539 64.2928V68.6684L47.037 68.8705C44.8042 67.5824 42.3181 66.1483 39.832 64.7116V60.1072C42.3108 61.5389 44.7871 62.9707 47.0102 64.2539C47.0443 64.2734 47.0784 64.2928 47.1149 64.3147C47.1271 64.3074 47.1417 64.3001 47.1539 64.2928Z" fill="white"/>
<path d="M54.475 64.7116C51.9451 66.1725 49.4152 67.6335 47.1531 68.9386C47.119 68.9192 47.085 68.8997 47.0484 68.8778C47.0436 68.8753 47.0411 68.8729 47.0363 68.8705L47.1531 68.6684V64.2928C49.4055 62.9901 51.9207 61.5389 54.436 60.0852H54.475V64.7116Z" fill="white"/>
<path d="M39.832 56.9417C42.3108 58.3734 44.7871 59.8051 47.0102 61.0883C47.0443 61.1078 47.0784 61.1273 47.1149 61.1492C47.1271 61.1419 47.1417 61.1346 47.1539 61.1273V64.2927C47.1417 64.3 47.1271 64.3073 47.1149 64.3146C47.0784 64.2927 47.0443 64.2732 47.0102 64.2538C44.7871 62.9706 42.3108 61.5388 39.832 60.1071V56.9417Z" fill="black"/>
<path d="M54.23 64.291C51.7894 65.7004 49.3488 67.1094 46.9082 68.5181H47.3998C44.9556 67.1152 42.515 65.7062 40.0779 64.291C39.5342 63.9769 39.0431 64.8182 39.5863 65.1321C41.5869 66.2882 43.588 67.4434 45.5897 68.5977C46.0114 68.8412 46.4278 69.0996 46.8558 69.3297C47.3321 69.5848 47.8985 69.0711 48.3078 68.8346C49.2946 68.2653 50.2813 67.6958 51.2679 67.126L54.7209 65.1321C55.2634 64.8187 54.7735 63.9767 54.2293 64.291H54.23Z" fill="#211715"/>
<path d="M39.5863 60.5275C41.5802 61.6793 43.5741 62.8312 45.568 63.9834C45.9985 64.232 46.4231 64.516 46.8692 64.7351C47.1456 64.8712 47.3506 64.7417 47.588 64.6043L48.3044 64.1904C49.286 63.6223 50.2681 63.0552 51.2506 62.4891C52.3951 61.828 53.5395 61.1669 54.6839 60.5059C55.2264 60.1922 54.7365 59.3505 54.1923 59.6648C51.7525 61.0749 49.3263 62.5137 46.8704 63.8943H47.3621C44.9461 62.4726 42.5065 61.089 40.0792 59.6867C39.5352 59.3726 39.0443 60.2142 39.5875 60.5278L39.5863 60.5275Z" fill="#211715"/>
<path d="M39.5863 57.3623C41.5802 58.514 43.5741 59.6659 45.568 60.8182C45.9985 61.0668 46.4231 61.3507 46.8692 61.5698C47.1456 61.7059 47.3506 61.5764 47.588 61.4391L48.3044 61.0251C49.286 60.457 50.2681 59.8899 51.2506 59.3238C52.3951 58.6627 53.5395 58.0016 54.6839 57.3406C55.2264 57.027 54.7365 56.1852 54.1923 56.4995C51.7525 57.9096 49.3263 59.3484 46.8704 60.729H47.3621C44.9461 59.3073 42.5065 57.9237 40.0792 56.5215C39.5352 56.2074 39.0443 57.0489 39.5875 57.3625L39.5863 57.3623Z" fill="#211715"/>
<path d="M46.6669 55.9826V66.4258C46.6669 67.0526 47.6409 67.0536 47.6409 66.4258V55.9826C47.6409 55.3559 46.6669 55.3549 46.6669 55.9826Z" fill="#211715"/>
<path d="M54.23 49.3576C51.7894 50.767 49.3488 52.176 46.9082 53.5847H47.3998C44.9556 52.1818 42.515 50.7728 40.0779 49.3576C39.534 49.0435 39.0431 49.8848 39.5863 50.1987C41.5742 51.3471 43.5627 52.495 45.5519 53.6422C45.9934 53.8971 46.4285 54.1805 46.8829 54.4111C47.1772 54.5601 47.375 54.4403 47.6377 54.2894C47.8779 54.1507 48.1182 54.0121 48.3584 53.8735L51.2701 52.1934L54.7231 50.1994C55.2656 49.886 54.7757 49.044 54.2315 49.3584L54.23 49.3576Z" fill="#211715"/>
<path d="M40.0779 50.1986C42.5177 48.7883 44.9584 47.3793 47.3998 45.9715H46.9082C49.3485 47.3809 51.7891 48.7899 54.23 50.1986C54.7735 50.5129 55.2646 49.6714 54.7216 49.3576C52.2817 47.9472 49.8411 46.5382 47.3998 45.1305C47.325 45.0875 47.2402 45.0649 47.154 45.0649C47.0677 45.0649 46.983 45.0875 46.9082 45.1305C44.4677 46.5398 42.0271 47.9489 39.5863 49.3576C39.0438 49.6712 39.5337 50.5132 40.0779 50.1986Z" fill="#211715"/>
<path d="M39.345 49.778V64.7115C39.345 65.3383 40.319 65.3392 40.319 64.7115V49.778C40.319 49.1513 39.345 49.1503 39.345 49.778Z" fill="#211715"/>
<path d="M53.988 49.778V64.7115C53.988 65.3383 54.962 65.3392 54.962 64.7115V49.778C54.962 49.1513 53.988 49.1503 53.988 49.778Z" fill="#211715"/>
<path d="M28.1241 69.1771C29.6459 68.2985 31.1673 67.4191 32.6882 66.5388C33.2307 66.2254 32.7407 65.3834 32.1965 65.6978C30.6752 66.577 29.1538 67.4564 27.6325 68.3363C27.09 68.6494 27.5799 69.4914 28.1241 69.1771Z" fill="#211715"/>
<path d="M76.538 67.7336L78.8239 66.4138L81.1096 67.7336C81.1096 67.7786 81.1096 72.0592 81.1096 72.1527L78.8239 73.4722L78.7912 73.4535L76.538 72.1525C76.538 72.0517 76.5382 67.8015 76.538 67.7336Z" fill="white"/>
<path d="M80.8639 71.732L78.5779 73.0517H79.0696L76.7839 71.732C76.2399 71.4178 75.749 72.2594 76.2923 72.573L78.5779 73.8927C78.6527 73.9358 78.7375 73.9585 78.8238 73.9585C78.91 73.9585 78.9948 73.9358 79.0696 73.8927L81.3555 72.573C81.8982 72.2596 81.4083 71.4176 80.8639 71.732Z" fill="#211715"/>
<path d="M76.7839 68.154L79.0696 66.8343H78.5779C79.3401 67.274 80.1021 67.7139 80.8639 68.154C81.4078 68.4681 81.8987 67.6266 81.3555 67.313L79.0696 65.9932C78.9948 65.9502 78.91 65.9275 78.8238 65.9275C78.7375 65.9275 78.6527 65.9502 78.5779 65.9932L76.2923 67.313C75.7495 67.6264 76.2394 68.4684 76.7839 68.154Z" fill="#211715"/>
<path d="M76.051 67.7335C76.0532 69.0116 76.051 70.2902 76.051 71.5676V72.152C76.051 72.7787 77.0249 72.7797 77.0249 72.152V68.3011C77.0249 68.1118 77.0249 67.9226 77.0249 67.7335C77.0249 67.107 76.051 67.1058 76.051 67.7335Z" fill="#211715"/>
<path d="M80.6226 67.7335C80.625 69.0116 80.6226 70.2902 80.6226 71.5676V72.152C80.6226 72.7787 81.5965 72.7797 81.5965 72.152C81.5965 70.8681 81.5965 69.5843 81.5965 68.3006C81.5965 68.1114 81.5965 67.9222 81.5965 67.733C81.5965 67.1065 80.6226 67.1053 80.6226 67.733V67.7335Z" fill="#211715"/>
<path d="M82.0628 64.6622C82.0628 63.756 82.0628 62.8499 82.0628 61.9438C82.0615 61.8586 82.038 61.7752 81.9947 61.7018C81.9514 61.6284 81.8898 61.5676 81.8159 61.5252C81.742 61.4828 81.6584 61.4603 81.5732 61.46C81.488 61.4596 81.4041 61.4815 81.3299 61.5233L72.4076 66.6739C72.3343 66.717 72.2735 66.7785 72.2312 66.8522C72.1889 66.9259 72.1665 67.0094 72.1663 67.0944C72.1663 70.7103 72.167 74.3263 72.1685 77.9423C72.1698 78.0275 72.1932 78.1109 72.2364 78.1843C72.2797 78.2577 72.3413 78.3186 72.4152 78.361C72.4891 78.4034 72.5727 78.4259 72.6579 78.4262C72.7431 78.4265 72.8269 78.4047 72.9011 78.3628L75.0244 77.1359C75.5671 76.8227 75.0772 75.9807 74.5328 76.2951L72.4093 77.5211L73.1422 77.9416C73.1422 74.3257 73.1415 70.7097 73.14 67.0937L72.8987 67.5142L81.8213 62.3636L81.0889 61.9438C81.0889 62.8499 81.0889 63.756 81.0889 64.6622C81.0889 65.2889 82.0628 65.2899 82.0628 64.6622Z" fill="#211715"/>
<path d="M64.4181 76.9206C67.1328 75.3532 69.8467 73.7844 72.5595 72.2144L74.7673 70.9382C75.3098 70.6248 74.8199 69.7828 74.2757 70.0972C71.305 71.8141 68.3344 73.5315 65.3638 75.2493C64.8848 75.5262 64.4059 75.803 63.9272 76.0796C63.3847 76.393 63.8746 77.235 64.4188 76.9206H64.4181Z" fill="#211715"/>
<path d="M69.5472 76.5235C71.2877 75.5185 73.0277 74.5127 74.767 73.5061C75.3095 73.1927 74.8196 72.3507 74.2754 72.6651C72.5354 73.6707 70.7956 74.6765 69.0559 75.6824C68.5131 75.9958 69.003 76.8376 69.5472 76.5235Z" fill="#211715"/>
<path d="M90.8659 58.9827C90.6742 58.8714 90.4685 58.7513 90.2523 58.6255C90.1076 58.5408 89.943 58.4959 89.7754 58.4954C89.6078 58.4949 89.443 58.5387 89.2978 58.6225L84.2277 61.5535C84.1123 61.6201 84.0164 61.7159 83.9496 61.8313C83.8828 61.9467 83.8475 62.0776 83.8472 62.2109C83.8472 62.9796 83.8472 64.5533 83.8472 65.3179C83.8472 65.4508 83.8821 65.5813 83.9486 65.6964C84.015 65.8115 84.1105 65.9071 84.2255 65.9736C85.0225 66.4363 86.8234 67.4833 87.0878 67.6345" fill="black"/>
<path d="M79.7791 70.7563C79.753 70.7509 79.727 70.7463 79.7004 70.7426C79.567 70.7182 79.4295 70.73 79.3022 70.7767C79.1749 70.8235 79.0624 70.9035 78.9765 71.0085C78.9142 71.0938 78.8823 71.1976 78.886 71.3032C78.9108 71.4612 78.9851 71.6073 79.098 71.7205C79.5337 72.2424 80.0531 72.6881 80.635 73.0395C80.147 73.2335 79.7503 73.6048 79.5246 74.079C79.4395 74.2701 79.4016 74.4788 79.4139 74.6876C79.4262 74.8964 79.4885 75.0992 79.5955 75.2789C79.7672 75.509 79.9823 75.7032 80.2286 75.8506L80.7523 76.2117C81.016 76.3934 81.3155 76.584 81.6318 76.5329C81.7023 76.5127 81.7759 76.506 81.8488 76.5132C81.9243 76.5386 81.9906 76.586 82.039 76.6493L82.5223 77.1689C83.0244 76.4579 83.7205 75.5051 84.2267 74.8362C83.927 74.5171 83.6967 74.1394 83.5501 73.7269C83.4992 73.5463 83.4352 73.3697 83.3585 73.1985C83.1497 72.8593 82.8637 72.5743 82.5238 72.3667C82.0097 71.9959 80.9846 71.3842 80.4429 71.055C80.2399 70.919 80.0155 70.818 79.7791 70.7563Z" fill="white"/>
<path d="M95.0574 69.8762C94.3805 69.746 93.6835 69.7644 93.0144 69.93C91.6733 70.191 90.364 70.4036 89.3409 71.1136C88.8677 71.4468 88.4678 71.8733 88.1657 72.3669C87.7805 72.9893 86.8351 74.5515 86.3374 75.3502C85.9989 75.141 85.5338 74.8004 85.1442 74.526C85.0256 74.442 84.8791 74.4072 84.7353 74.429C84.5916 74.4508 84.462 74.5274 84.3736 74.6428C83.8104 75.3804 82.9075 76.6151 82.3565 77.406C82.279 77.5165 82.2441 77.6513 82.2581 77.7855C82.2721 77.9197 82.3341 78.0443 82.4327 78.1365C83.1505 78.8102 84.3239 79.884 85.023 80.2529C85.4432 80.4691 85.9268 80.528 86.3865 80.419C86.8576 80.3085 87.3055 80.1157 87.7097 79.8497C87.706 80.8237 87.7046 81.4448 87.7046 81.4448C87.7026 82.2014 87.736 83.0687 87.736 83.0687C87.7192 83.4768 87.9335 84.1644 88.268 84.3943C88.5656 84.5995 88.9625 84.6918 89.8551 84.8542C91.9333 85.2321 93.769 84.958 96.1416 84.5715C96.5339 84.5077 97.195 84.3344 97.4078 84.0787C97.6783 83.7541 97.6642 83.4106 97.6788 82.9272C97.7911 79.2088 98.0073 76.4367 97.3576 73.2642C97.1543 72.2712 96.8706 71.2388 96.1599 70.5164C95.8604 70.2029 95.4781 69.9809 95.0574 69.8762Z" fill="white"/>
<path d="M88.2108 68.1996C88.5183 68.5166 88.8879 68.7667 89.2965 68.9343C89.7051 69.1019 90.1438 69.1834 90.5853 69.1736L90.9411 70.3884C91.5985 70.1948 92.301 70.0675 93.0144 69.9287C93.1362 69.9043 93.2535 69.8851 93.3682 69.8673L93.4111 69.8393C92.646 69.0239 92.0167 68.0911 91.5471 67.0764C91.5471 67.0764 91.4965 66.9517 91.4254 66.7754C91.7023 66.6095 91.9242 66.3656 92.0631 66.0742C92.2127 65.7824 92.2776 65.4545 92.2505 65.1277C92.2234 64.8009 92.1053 64.4883 91.9097 64.2251C91.7054 63.9778 91.4191 63.8121 91.1029 63.758C90.7867 63.704 90.4616 63.7653 90.1867 63.9307C90.0148 63.4863 89.7789 62.5769 89.7256 62.3967C89.196 62.0189 88.6429 61.6752 88.0698 61.3674L88.0352 61.4135C87.5707 62.0487 87.2419 62.7728 87.0693 63.5406C86.8967 64.3084 86.884 65.1035 87.032 65.8764C87.1881 66.7499 87.5981 67.5579 88.2108 68.1996Z" fill="white"/>
<path d="M96.8227 67.0332L96.8402 67.0025C97.4286 65.9789 97.6639 64.7902 97.5098 63.6196C97.1728 61.2753 95.1793 59.3135 92.8136 59.1795C91.904 59.1266 90.9953 59.2987 90.168 59.6805C89.3408 60.0624 88.6204 60.6422 88.0705 61.3688C88.6437 61.6765 89.1967 62.0203 89.7263 62.398C89.7796 62.5782 90.0156 63.4877 90.1875 63.932C90.4623 63.7666 90.7874 63.7054 91.1036 63.7594C91.4198 63.8134 91.7061 63.9791 91.9104 64.2264C92.1061 64.4896 92.2241 64.8023 92.2512 65.1291C92.2783 65.4559 92.2134 65.7837 92.0638 66.0755C91.9249 66.3669 91.7031 66.6109 91.4261 66.7768C91.4992 66.9577 91.5479 67.0777 91.5479 67.0777C92.0175 68.0924 92.6468 69.0253 93.4118 69.8407L93.4306 69.8592C93.8291 69.7926 94.2342 69.7745 94.6371 69.8054C94.796 69.5004 95.0081 69.2263 95.2634 68.996C95.9296 68.2623 96.4124 67.7481 96.8227 67.0332Z" fill="#7A7473"/>
<path d="M82.384 76.3053C82.3042 76.2141 82.2052 76.1417 82.0941 76.0934C81.983 76.0451 81.8625 76.0221 81.7414 76.026C81.6411 76.0444 81.5382 76.0428 81.4386 76.0211C81.339 75.9994 81.2447 75.9581 81.1612 75.8996C80.7705 75.6888 80.4097 75.4267 80.0883 75.1204C79.5005 74.4654 80.3048 73.7218 80.8809 73.4613C81.2293 73.3037 81.1653 72.7953 80.8809 72.6202C80.5105 72.3948 80.1668 72.1283 79.8563 71.8257C79.7068 71.6873 79.5684 71.5375 79.4423 71.3774C79.363 71.2701 79.3481 71.2978 79.4255 71.2496C79.6968 71.0811 80.1519 71.4495 80.3666 71.5795C80.661 71.7578 80.9552 71.9358 81.2476 72.1167C81.54 72.2976 81.832 72.4802 82.1152 72.6743C82.405 72.8435 82.661 73.065 82.87 73.3276C83.085 73.648 83.1337 74.0707 83.3178 74.4133C83.4614 74.6429 83.6213 74.8619 83.796 75.0688C83.8639 75.1773 83.9707 75.2558 84.0945 75.2882C84.2183 75.3207 84.3498 75.3046 84.4622 75.2434C84.5731 75.1776 84.6536 75.0709 84.6864 74.9462C84.7191 74.8215 84.7014 74.6889 84.637 74.5772C84.4707 74.3806 84.3175 74.1732 84.1783 73.9565C83.9859 73.6144 83.9377 73.2122 83.7356 72.874C83.3675 72.2584 82.666 71.8596 82.0745 71.486C81.4677 71.1018 80.8385 70.6382 80.1689 70.373C79.4363 70.083 78.3184 70.4117 78.4085 71.3714C78.4528 71.8454 78.8804 72.2389 79.2049 72.5521C79.566 72.8977 79.9633 73.2033 80.39 73.4635V72.6224C79.4275 73.0578 78.6266 74.1231 79.0265 75.2139C79.2344 75.7813 79.726 76.0971 80.202 76.4251C80.4301 76.5987 80.6729 76.7521 80.9277 76.8836C81.051 76.9424 81.1815 76.9848 81.3158 77.0097C81.4426 77.0314 81.6849 76.9712 81.7921 77.0163L81.5771 76.8911C81.6211 76.9211 81.6609 76.9567 81.6956 76.997C82.1339 77.4455 82.8235 76.7567 82.3842 76.3084L82.384 76.3053Z" fill="#211715"/>
<path d="M97.4531 98.5851L97.2096 98.4539C96.4394 98.8247 94.0113 98.8705 93.5514 98.5376C92.6731 99.5474 91.4074 99.6937 90.2695 99.5406C90.1138 99.5288 89.9601 99.498 89.8118 99.449C89.4041 99.3116 89.0284 99.0931 88.7073 98.8067C88.7041 98.8035 88.6997 98.8018 88.6966 98.7986L88.5566 98.8113C88.3688 98.6988 87.7964 98.8147 87.5619 99.168C87.3274 99.5213 87.3354 100.201 87.4681 100.605C87.7569 101.482 88.6019 101.928 89.4711 102.241C90.3677 102.58 91.34 102.666 92.2823 102.491C92.4805 102.442 92.6663 102.351 92.8277 102.226C92.9891 102.101 93.1225 101.943 93.2195 101.763C93.3331 101.55 93.4057 101.317 93.4335 101.077L94.9286 101.421C95.2335 101.5 95.547 101.54 95.8619 101.541C96.0011 101.541 96.1472 101.532 96.3082 101.515C96.5269 101.503 96.7403 101.443 96.933 101.339C97.1256 101.234 97.2927 101.088 97.4222 100.912C97.57 100.629 97.6453 100.314 97.6413 99.9947C97.6511 99.6733 97.4429 98.9041 97.4531 98.5851Z" fill="white"/>
<path d="M91.9513 85.0356C91.2488 85.0405 90.5473 84.9801 89.8558 84.8552C88.8512 84.6726 88.4745 84.5783 88.1606 84.3124C88.1421 86.5061 88.3157 95.1194 88.4859 98.2503L88.5378 98.5101C88.6128 98.8853 89.1952 99.2045 89.8101 99.4487C89.9584 99.4978 90.1121 99.5285 90.2678 99.5403C91.4057 99.6935 92.6714 99.5471 93.5494 98.5373C94.1121 98.9442 97.6204 98.7857 97.4365 98.1575C97.3233 95.0464 97.2235 88.7606 97.3148 85.9706C97.3148 85.9706 97.2904 85.0137 97.269 84.2004C96.9191 84.391 96.5377 84.517 96.1431 84.5725C94.7601 84.8364 93.3586 84.9913 91.9513 85.0356Z" fill="#CFCFCF"/>
<path d="M87.6734 84.9156C87.6846 88.5395 87.7752 92.1661 87.8972 95.7878C87.9252 96.6191 87.9551 97.4504 88.0004 98.281C88.0343 98.9043 89.0085 98.9082 88.9744 98.281C88.7774 94.6631 88.7282 91.0329 88.6734 87.4109C88.661 86.5791 88.6491 85.7474 88.6474 84.9156C88.6454 84.2888 87.6715 84.2876 87.6734 84.9156Z" fill="#211715"/>
<path d="M96.8271 85.9707C96.7192 89.3628 96.8039 92.7678 96.8894 96.1597C96.9099 96.9683 96.9332 97.777 96.9661 98.5851C96.9904 99.2097 97.9644 99.2129 97.9401 98.5851C97.8023 95.1925 97.7567 91.7917 97.7665 88.3969C97.7689 87.588 97.7752 86.7791 97.801 85.9707C97.821 85.3437 96.847 85.3444 96.8271 85.9707Z" fill="#211715"/>
<path d="M93.0059 89.4258C92.8681 92.1043 92.7948 94.7927 92.7671 97.4748C92.7624 97.9374 92.7461 98.4052 92.7807 98.8666C92.8272 99.488 93.8014 99.4929 93.7547 98.8666C93.6767 97.8278 93.7483 96.7638 93.7717 95.7241C93.8061 94.2076 93.8513 92.6913 93.9073 91.1751C93.9285 90.5907 93.9497 90.0088 93.9804 89.4258C94.0125 88.7996 93.0386 88.8013 93.0064 89.4258H93.0059Z" fill="#211715"/>
<path d="M88.0684 98.6394C88.1901 99.1151 88.6333 99.4234 89.0462 99.6377C89.2933 99.7772 89.5562 99.8866 89.8293 99.9637C90.0916 100.018 90.3579 100.052 90.6255 100.065C91.667 100.17 92.709 99.8712 93.5367 99.2306C93.6274 99.1389 93.6782 99.0151 93.6782 98.8861C93.6782 98.7572 93.6274 98.6334 93.5367 98.5417C93.444 98.4532 93.3207 98.4038 93.1924 98.4038C93.0642 98.4038 92.9409 98.4532 92.8481 98.5417C92.2459 98.9735 91.5074 99.1719 90.7699 99.1C90.3945 99.0977 90.0235 99.0183 89.68 98.8668C89.4961 98.7878 89.3218 98.6879 89.1607 98.5692C89.1128 98.5283 89.0678 98.4841 89.026 98.437C89.0468 98.4614 89.0412 98.45 89.0092 98.4029C89.0243 98.4431 89.0236 98.4358 89.0075 98.3813C88.8514 97.7747 87.9118 98.0318 88.0684 98.6401V98.6394Z" fill="#211715"/>
<path d="M93.6073 99.0924C94.2291 99.2476 94.8726 99.297 95.5107 99.2385C96.1761 99.2436 96.8362 99.1203 97.4548 98.8752C97.5655 98.8092 97.6459 98.7024 97.6786 98.5778C97.7113 98.4531 97.6937 98.3206 97.6296 98.2088C97.5624 98.0994 97.4556 98.0202 97.3314 97.9877C97.2073 97.9552 97.0754 97.9718 96.9632 98.0342C96.8758 98.0748 97.0774 97.9959 96.9792 98.0281C96.9549 98.0356 96.9325 98.0451 96.9089 98.0524C96.8519 98.0719 96.7942 98.0885 96.736 98.1038C96.6013 98.1391 96.4645 98.1657 96.3272 98.1881C96.2931 98.1937 96.2588 98.1985 96.2247 98.2036C96.1665 98.2129 96.3023 98.1951 96.2064 98.2063C96.126 98.2156 96.0457 98.2248 95.9653 98.2324C95.7988 98.2486 95.6319 98.2597 95.4647 98.2657C95.1472 98.2799 94.8291 98.2769 94.5119 98.257C94.4454 98.2526 94.3791 98.2471 94.3132 98.2407C94.2757 98.2368 94.2382 98.2314 94.2007 98.228C94.3325 98.2399 94.2139 98.2297 94.1893 98.2258C94.08 98.209 93.972 98.1846 93.8662 98.1528C93.8045 98.1358 93.7401 98.1311 93.6766 98.139C93.6132 98.1469 93.5519 98.1672 93.4962 98.1988C93.4406 98.2304 93.3918 98.2726 93.3525 98.3231C93.3132 98.3735 93.2842 98.4312 93.2672 98.4929C93.2502 98.5546 93.2455 98.619 93.2534 98.6825C93.2613 98.7459 93.2816 98.8072 93.3132 98.8629C93.3448 98.9185 93.387 98.9673 93.4375 99.0066C93.488 99.0459 93.5457 99.0749 93.6073 99.0919V99.0924Z" fill="#211715"/>
<path d="M88.8025 98.3898C88.6096 98.3094 88.4001 98.2765 88.1918 98.2938C87.9836 98.3111 87.7825 98.3782 87.6055 98.4894C87.4029 98.6132 87.2336 98.7846 87.1122 98.9885C86.9908 99.1925 86.9209 99.423 86.9086 99.6601C86.8549 100.135 86.9356 100.616 87.1416 101.047C87.3476 101.479 87.6705 101.844 88.0737 102.101C88.9808 102.687 90.0289 103.019 91.1084 103.062C92.1362 103.114 93.2467 102.896 93.7101 101.864C94.108 100.977 93.9478 99.9316 93.7371 99.0187C93.5964 98.4083 92.657 98.6667 92.798 99.2776C92.9161 99.7413 92.9758 100.218 92.9755 100.697C92.9758 100.84 92.9616 100.983 92.9331 101.123C92.918 101.189 92.9024 101.255 92.882 101.32C92.8757 101.34 92.8053 101.511 92.852 101.411C92.4342 102.312 91.1551 102.162 90.3487 101.985C89.5576 101.812 88.5064 101.479 88.0625 100.738C87.8687 100.404 87.8087 100.009 87.8945 99.6321C87.9022 99.5632 87.9278 99.4974 87.9687 99.4414C88.0097 99.3854 88.0646 99.3411 88.128 99.3129C88.1935 99.2827 88.2712 99.2817 88.335 99.2527C88.3659 99.2389 88.401 99.2742 88.3106 99.2308C88.8731 99.5006 89.3679 98.6611 88.8025 98.3898Z" fill="#211715"/>
<path d="M96.9661 98.5851C96.9856 98.9519 97.038 99.3162 97.1227 99.6736C97.1346 99.7221 97.1428 99.7715 97.147 99.8213C97.147 99.6933 97.1431 99.7926 97.147 99.8265C97.1542 99.8958 97.1564 99.9655 97.1536 100.035C97.1512 100.094 97.1456 100.153 97.1409 100.211C97.1324 100.326 97.1553 100.161 97.1336 100.265C97.121 100.326 97.1093 100.387 97.0934 100.447C97.0886 100.465 97.0426 100.602 97.0586 100.563C97.0747 100.523 97.0099 100.648 97.0031 100.664C96.9706 100.71 96.9706 100.712 97.0031 100.67C96.9895 100.687 96.9753 100.703 96.9607 100.719C96.9266 100.756 96.8902 100.79 96.8517 100.823C96.9279 100.759 96.8098 100.847 96.7913 100.859C96.7472 100.886 96.7019 100.908 96.6561 100.932C96.6045 100.956 96.6026 100.957 96.6505 100.935C96.6298 100.943 96.6089 100.95 96.588 100.957C96.4895 100.988 96.3891 101.012 96.2875 101.03C96.2518 101.035 96.2589 101.034 96.3089 101.027C96.2724 101.031 96.2359 101.034 96.1991 101.037C96.1385 101.042 96.0773 101.046 96.017 101.049C95.9037 101.054 95.7905 101.054 95.6773 101.049C95.6227 101.046 95.5682 101.041 95.5137 101.037C95.4552 101.03 95.4516 101.03 95.5027 101.037C95.4784 101.033 95.4552 101.03 95.4316 101.026C95.3064 101.006 95.1823 100.979 95.0588 100.95C94.9343 100.916 94.8012 100.933 94.6889 100.996C94.5765 101.06 94.4941 101.166 94.4598 101.291C94.4255 101.415 94.442 101.548 94.5058 101.661C94.5696 101.773 94.6754 101.855 94.8 101.89C95.808 102.126 97.2481 102.16 97.8544 101.137C98.0873 100.706 98.1763 100.213 98.1083 99.7276C98.0776 99.4907 98.0338 99.2567 97.9922 99.0215C97.9829 98.9701 97.9739 98.9187 97.9656 98.8671C97.9615 98.8427 97.9576 98.8184 97.9537 98.7941C97.9456 98.738 97.9465 98.7462 97.9564 98.8184C97.9379 98.7426 97.9326 98.6642 97.9408 98.5866C97.9408 98.4574 97.8895 98.3336 97.7982 98.2422C97.7068 98.1509 97.583 98.0996 97.4538 98.0996C97.3247 98.0996 97.2008 98.1509 97.1095 98.2422C97.0181 98.3336 96.9668 98.4574 96.9668 98.5866L96.9661 98.5851Z" fill="#211715"/>
<path d="M87.2183 81.4457C87.2183 81.9872 87.2354 82.528 87.2497 83.0696C87.2651 83.6598 87.4465 84.3516 87.9242 84.7394C88.3347 85.0728 88.8982 85.1677 89.4015 85.2644C90.1365 85.4118 90.8826 85.4971 91.6319 85.5196C93.1844 85.5534 94.7464 85.307 96.2719 85.0419C96.8475 84.942 97.5381 84.7706 97.8828 84.2554C98.2805 83.6595 98.1699 82.793 98.1933 82.1126C98.2943 79.1447 98.4341 76.168 97.8485 73.2368C97.5882 71.9334 97.1611 70.5031 95.9763 69.7441C94.8294 69.0098 93.3872 69.357 92.1486 69.6029C91.3328 69.7417 90.5366 69.9776 89.7769 70.3056C88.9998 70.67 88.336 71.2384 87.8563 71.9502C87.1535 72.9811 86.5511 74.0876 85.8903 75.146C85.5572 75.6793 86.3994 76.1687 86.7311 75.6377C87.2809 74.7572 87.8163 73.8682 88.3583 72.9836C88.6229 72.507 88.9624 72.0761 89.3637 71.7074C89.8724 71.3037 90.4606 71.012 91.0899 70.8515C91.7458 70.6599 92.4205 70.5389 93.0909 70.4103C93.6387 70.277 94.2061 70.2434 94.7659 70.311C95.8835 70.508 96.4194 71.5757 96.6963 72.5767C97.3932 75.0934 97.361 77.7631 97.2807 80.3493C97.2578 81.0719 97.2303 81.7946 97.2076 82.5163C97.193 82.9668 97.3294 83.6673 96.829 83.8858C96.2614 84.1331 95.5852 84.1745 94.9809 84.2668C94.304 84.3701 93.6249 84.4616 92.9416 84.5103C92.2048 84.5674 91.4645 84.5611 90.7288 84.4913C90.0705 84.442 89.4202 84.3162 88.791 84.1166C88.6429 84.0767 88.5154 83.9823 88.4338 83.8524C88.3011 83.6248 88.2292 83.3668 88.2252 83.1034C88.2041 82.5515 88.1937 81.9991 88.1942 81.4462C88.1942 80.8194 87.2203 80.8185 87.2203 81.4462L87.2183 81.4457Z" fill="#211715"/>
<path d="M95.1141 69.9453C95.3821 69.5602 95.6876 69.2026 96.0262 68.8778C96.4017 68.4738 96.7456 68.0415 97.055 67.5849C97.6851 66.6269 98.0288 65.509 98.0458 64.3625C98.0384 63.3849 97.7839 62.4251 97.3059 61.5724C96.8279 60.7196 96.1419 60.0017 95.3118 59.4853C93.6139 58.4288 91.4507 58.4626 89.6964 59.3704C88.753 59.8743 87.9573 60.6154 87.3877 61.5206C86.8181 62.4259 86.4943 63.4639 86.4482 64.5324C86.332 66.9467 87.8758 69.7432 90.5846 69.6611C91.2099 69.6421 91.2126 68.6682 90.5846 68.6872C88.5787 68.748 87.4567 66.711 87.4168 64.9325C87.393 64.0265 87.6071 63.1301 88.0378 62.3327C88.4684 61.5353 89.1006 60.8646 89.8712 60.3877C91.2778 59.5391 93.1045 59.3803 94.5684 60.1783C95.2665 60.5585 95.8596 61.1056 96.2947 61.7708C96.7298 62.4361 96.9935 63.1987 97.062 63.9907C97.1249 65.1058 96.818 66.2105 96.1889 67.1334C95.8875 67.5636 95.5543 67.9706 95.192 68.3509C94.8491 68.6858 94.5417 69.0552 94.2745 69.4532C93.9558 69.9945 94.7975 70.4851 95.1156 69.9446L95.1141 69.9453Z" fill="#211715"/>
<path d="M86.4104 74.8189C85.8961 74.4765 85.3147 73.8395 84.6436 73.955C84.0699 74.0538 83.7702 74.6353 83.4505 75.0655C83.0703 75.577 82.6949 76.0922 82.3243 76.611C81.9852 77.0856 81.5788 77.5755 81.8756 78.1842C82.0147 78.414 82.1953 78.6159 82.4081 78.7798C82.6272 78.9826 82.8493 79.1837 83.0741 79.381C83.504 79.7704 83.9582 80.1323 84.4337 80.4645C84.9274 80.821 85.5309 80.992 86.1382 80.9474C86.7568 80.8732 87.3505 80.6594 87.8745 80.3223C89.0562 79.5918 89.9065 78.4542 90.71 77.3468C90.7742 77.2351 90.7919 77.1026 90.7593 76.9779C90.7266 76.8533 90.6462 76.7465 90.5354 76.6806C90.4232 76.6183 90.2913 76.6016 90.1672 76.6342C90.043 76.6667 89.9362 76.7459 89.869 76.8552C89.3185 77.6711 88.6712 78.4173 87.9412 79.0776C87.2811 79.6347 86.2412 80.2407 85.3588 79.8779C84.9956 79.7 84.6595 79.4716 84.3604 79.1993C83.9813 78.8911 83.6156 78.5662 83.2552 78.2365C83.0936 78.1101 82.943 77.9703 82.8048 77.8187C82.6925 77.6726 82.813 77.5996 82.9138 77.4569C83.1992 77.0522 83.4883 76.6501 83.7812 76.2506C83.9503 76.0188 84.1208 75.7877 84.2925 75.5571C84.4199 75.3518 84.5651 75.1581 84.7266 74.9784C84.7785 74.9297 84.7802 74.9116 84.8506 74.9107C84.8525 74.9107 85.0529 75.0551 85.1099 75.0952C85.3778 75.2859 85.6456 75.4775 85.9198 75.6599C86.443 76.0083 86.9312 75.1651 86.4114 74.8189H86.4104Z" fill="#211715"/>
<path d="M88.0143 61.8932C88.5251 62.1649 89.0149 62.4742 89.4799 62.8185L89.2559 62.5275C89.3978 63.0113 89.5159 63.5015 89.6859 63.9773C89.7029 64.0389 89.7319 64.0966 89.7712 64.1471C89.8105 64.1976 89.8593 64.2398 89.9149 64.2714C89.9706 64.303 90.0318 64.3233 90.0953 64.3312C90.1588 64.3391 90.2232 64.3344 90.2849 64.3174C90.3465 64.3004 90.4043 64.2714 90.4547 64.2321C90.5052 64.1928 90.5474 64.144 90.579 64.0884C90.6106 64.0327 90.6309 63.9715 90.6388 63.908C90.6467 63.8445 90.642 63.7801 90.625 63.7184C90.5233 63.4335 90.4392 63.1421 90.3572 62.8511C90.3212 62.7227 90.2856 62.5944 90.2505 62.4661C90.2277 62.2942 90.1467 62.1352 90.0209 62.0157C89.5458 61.6498 89.0389 61.3272 88.5062 61.0519C88.4509 61.0196 88.3899 60.9986 88.3265 60.9899C88.2631 60.9812 88.1987 60.9851 88.1368 61.0013C88.0749 61.0175 88.0169 61.0458 87.9659 61.0844C87.915 61.1231 87.8721 61.1714 87.8398 61.2266C87.8076 61.2819 87.7865 61.3429 87.7778 61.4063C87.7691 61.4696 87.773 61.5341 87.7892 61.596C87.8054 61.6578 87.8337 61.7159 87.8723 61.7669C87.911 61.8178 87.9593 61.8607 88.0145 61.893L88.0143 61.8932Z" fill="#211715"/>
<path d="M90.4013 64.3746C90.4439 64.3434 90.4886 64.315 90.535 64.2896C90.5766 64.2672 90.6397 64.2512 90.5617 64.275C90.6104 64.2597 90.6621 64.247 90.712 64.2322C90.8176 64.2005 90.6358 64.2307 90.7378 64.2266C90.7906 64.2244 90.8427 64.221 90.8956 64.2229C90.9443 64.2246 91.0098 64.2339 90.9243 64.2205C91.0162 64.2369 91.1068 64.2601 91.1953 64.2899C91.2473 64.3099 91.2456 64.3087 91.1904 64.2865C91.2148 64.2977 91.2391 64.3094 91.2635 64.322C91.2988 64.3408 91.3336 64.361 91.3672 64.3829C91.3896 64.3973 91.4115 64.4124 91.4332 64.4282C91.3876 64.3926 91.3859 64.3926 91.4281 64.4282C91.4563 64.4564 91.4865 64.4822 91.514 64.5117C91.5323 64.5312 91.5498 64.5512 91.5666 64.5719C91.5363 64.5318 91.5373 64.5344 91.5698 64.5799C91.5927 64.6179 91.6173 64.6529 91.6387 64.6929C91.6526 64.7187 91.666 64.7447 91.6786 64.7713C91.6593 64.7226 91.66 64.7243 91.6806 64.7764C91.6974 64.8251 91.714 64.8738 91.7273 64.9225C91.7407 64.9712 91.7517 65.0228 91.7602 65.0735C91.74 64.9673 91.7639 65.119 91.7653 65.1426C91.7682 65.1947 91.769 65.2466 91.7675 65.2987C91.7675 65.3148 91.7573 65.4662 91.7624 65.4124C91.7675 65.3586 91.7451 65.5076 91.7412 65.5244C91.73 65.5755 91.7169 65.6259 91.7013 65.6761C91.6857 65.7263 91.6691 65.7754 91.6492 65.8237C91.6872 65.7321 91.6234 65.8699 91.6141 65.8872C91.5898 65.9318 91.5654 65.9756 91.5367 66.018C91.5209 66.0423 91.5045 66.0667 91.488 66.0898C91.5157 66.0549 91.5188 66.0508 91.4972 66.0774C91.4312 66.1541 91.3599 66.226 91.2837 66.2926C91.2572 66.3145 91.2615 66.3109 91.2973 66.2822C91.273 66.2987 91.2503 66.3145 91.226 66.3309C91.1836 66.3571 91.1391 66.3783 91.0952 66.4022C91.0636 66.417 91.0697 66.4144 91.114 66.3944C91.0872 66.4041 91.0604 66.4129 91.0331 66.4209C90.9782 66.436 90.9223 66.4475 90.8659 66.4553C90.7414 66.4897 90.6356 66.5721 90.5717 66.6844C90.5078 66.7966 90.491 66.9296 90.525 67.0543C90.5625 67.1768 90.6454 67.2803 90.7568 67.3436C90.8681 67.407 90.9995 67.4254 91.124 67.3952C92.0763 67.2566 92.6687 66.2812 92.7366 65.39C92.7799 64.9362 92.6644 64.4814 92.4098 64.1032C92.1553 63.725 91.7774 63.4469 91.3407 63.3162C91.1007 63.2465 90.8484 63.23 90.6015 63.2679C90.3545 63.3057 90.1187 63.397 89.9106 63.5353C89.8014 63.6025 89.7222 63.7093 89.6897 63.8334C89.6572 63.9575 89.6738 64.0893 89.7361 64.2015C89.8022 64.312 89.909 64.3921 90.0335 64.4248C90.158 64.4575 90.2904 64.4401 90.4022 64.3763L90.4013 64.3746Z" fill="#211715"/>
<path d="M91.0777 67.2075C91.3074 67.7465 91.5907 68.2611 91.9234 68.7434C92.257 69.2601 92.6403 69.743 93.0678 70.1851C93.1127 70.2316 93.1664 70.2688 93.2258 70.2943C93.2853 70.3198 93.3492 70.3332 93.4138 70.3338C93.4785 70.3344 93.5426 70.322 93.6025 70.2975C93.6623 70.2731 93.7167 70.2369 93.7624 70.1912C93.8081 70.1454 93.8443 70.0911 93.8688 70.0312C93.8933 69.9714 93.9056 69.9073 93.905 69.8426C93.9045 69.7779 93.891 69.714 93.8655 69.6546C93.84 69.5952 93.8029 69.5415 93.7564 69.4965C93.5749 69.3129 93.4042 69.119 93.245 68.9158C93.2375 68.9061 93.154 68.7992 93.2207 68.8859C93.1995 68.8586 93.1788 68.8311 93.1581 68.8036C93.1117 68.7422 93.066 68.6803 93.021 68.618C92.9338 68.4974 92.8489 68.3757 92.7661 68.2528C92.6061 68.0139 92.4537 67.7702 92.3117 67.5201C92.2482 67.4078 92.1868 67.2946 92.1289 67.1792C92.1035 67.1292 92.0792 67.0789 92.0558 67.0282C92.0424 66.9995 92.0298 66.9708 92.0164 66.942C91.9764 66.8558 92.0565 67.0394 92.019 66.9491C91.982 66.8263 91.8992 66.7224 91.7877 66.6589C91.6762 66.5955 91.5446 66.5773 91.42 66.6082C91.296 66.6434 91.1908 66.7259 91.1271 66.838C91.0633 66.95 91.0461 67.0826 91.0792 67.2072L91.0777 67.2075Z" fill="#211715"/>
<path d="M87.9568 63.9664C87.8845 63.5029 87.9702 63.0285 88.2003 62.6197C88.3989 62.2094 88.6604 61.8327 88.9754 61.5032C89.6761 60.8078 90.5124 60.2639 91.4322 59.9054C91.5546 59.8676 91.658 59.7846 91.7213 59.6733C91.7846 59.562 91.8032 59.4307 91.7731 59.3062C91.7383 59.1819 91.6559 59.0764 91.5437 59.0126C91.4315 58.9488 91.2987 58.9318 91.1741 58.9653C90.0699 59.4309 88.997 60.0218 88.186 60.9235C87.4153 61.7801 86.727 63.0402 87.0172 64.2245C87.1667 64.8333 88.1061 64.5752 87.9566 63.9657L87.9568 63.9664Z" fill="#211715"/>
<path d="M97.8062 64.5938C97.8066 64.6454 97.7961 64.6965 97.7754 64.7438C97.7547 64.7911 97.7241 64.8334 97.6859 64.868C97.09 65.4345 96.4167 65.9137 95.6863 66.2912C94.5081 66.8338 93.2244 67.109 91.9272 67.0972C91.0042 67.0801 90.0882 66.933 89.2062 66.6601C88.3842 66.3521 87.6208 65.9063 86.9485 65.3418C86.8549 65.2666 86.7794 65.1713 86.7275 65.0629C86.6757 64.9546 86.6489 64.8359 86.649 64.7158V63.8229C86.649 63.7577 86.6663 63.6936 86.6992 63.6372C86.732 63.5808 86.7792 63.5342 86.836 63.502C86.8927 63.4698 86.957 63.4533 87.0223 63.4541C87.0875 63.4548 87.1514 63.4729 87.2074 63.5064C87.8076 63.866 88.4735 64.3552 89.2079 64.6291C90.1211 64.9652 91.0854 65.1411 92.0585 65.1492C93.0805 65.1119 94.0821 64.8531 94.9943 64.3908C95.6237 64.1059 96.2237 63.6216 96.8132 63.2152C96.9111 63.1523 97.0242 63.1171 97.1405 63.1134C97.2568 63.1096 97.372 63.1374 97.4737 63.1937C97.5755 63.2501 97.6602 63.333 97.7187 63.4335C97.7772 63.5341 97.8074 63.6486 97.8062 63.765V64.5938Z" fill="black"/>
<path d="M97.3192 64.594C97.327 64.5178 97.3949 64.5066 97.2787 64.5797C97.2442 64.6058 97.2116 64.6344 97.1813 64.6654C97.1023 64.7347 97.0226 64.8034 96.9422 64.8716C96.7749 65.0128 96.6045 65.1499 96.427 65.278C96.0414 65.5611 95.6243 65.7986 95.184 65.9856C94.3596 66.326 93.4863 66.5329 92.5968 66.5987C91.8139 66.6464 91.028 66.5915 90.2593 66.4353C89.3046 66.2406 88.4051 65.8362 87.6257 65.2515C87.4002 65.0873 87.1489 64.9537 87.1367 64.6544C87.127 64.4109 87.1591 64.1628 87.1367 63.9208C87.1251 63.7956 87.1367 63.829 87.061 63.9329C87.0216 63.9865 86.8526 63.8248 87.0447 63.9758C87.0849 64.0039 87.1266 64.0298 87.1696 64.0535C87.2841 64.1248 87.3978 64.1976 87.5105 64.2699C87.927 64.5463 88.3654 64.7884 88.8212 64.9936C90.5308 65.743 92.4586 65.8268 94.2268 65.2286C94.7228 65.0598 95.2024 64.8462 95.6597 64.5906C95.9113 64.4445 96.1516 64.2787 96.3902 64.1102C96.51 64.0252 96.6289 63.9398 96.7484 63.8538C96.8522 63.7592 96.9679 63.6788 97.0927 63.6144C97.4548 63.499 97.3192 64.4019 97.3192 64.594C97.3192 65.2208 98.2931 65.2217 98.2931 64.594C98.2931 63.9609 98.3939 63.2465 97.8015 62.8282C97.6061 62.6933 97.3732 62.6233 97.1358 62.6282C96.8984 62.633 96.6686 62.7125 96.4789 62.8552C95.997 63.1822 95.5434 63.5502 95.0298 63.8292C94.0866 64.363 93.0234 64.6492 91.9396 64.661C90.8925 64.659 89.8591 64.4221 88.9157 63.9678C88.4217 63.714 87.977 63.3822 87.4944 63.1104C87.3844 63.0404 87.26 62.996 87.1304 62.9805C87.0009 62.965 86.8696 62.9788 86.7461 63.0209C86.6226 63.0629 86.5101 63.1322 86.417 63.2236C86.3239 63.3149 86.2525 63.426 86.2081 63.5487C86.1498 63.825 86.1343 64.1085 86.162 64.3895C86.1257 64.7477 86.2001 65.1084 86.3753 65.4229C86.6432 65.8263 87.1577 66.1256 87.5577 66.3835C88.0324 66.692 88.5423 66.9425 89.0767 67.1295C90.0752 67.4514 91.12 67.6066 92.169 67.589C93.3264 67.5736 94.4698 67.3346 95.5365 66.8853C96.1166 66.6422 96.6622 66.324 97.1594 65.9388C97.6221 65.5841 98.2308 65.2186 98.2931 64.594C98.2922 64.4651 98.2406 64.3418 98.1495 64.2507C98.0584 64.1595 97.935 64.1079 97.8061 64.107C97.6779 64.1098 97.5556 64.162 97.4649 64.2528C97.3742 64.3435 97.322 64.4657 97.3192 64.594Z" fill="#211715"/>
<path d="M91.1118 58.5621C90.5418 58.2307 89.983 57.8458 89.2968 58.0922C88.9989 58.2209 88.713 58.3757 88.4424 58.5548L87.53 59.0822L85.6875 60.1475L84.8143 60.6513C84.4622 60.8257 84.1254 61.0293 83.8075 61.26C83.3558 61.6379 83.3589 62.1563 83.3589 62.6949C83.3589 63.2335 83.3589 63.7663 83.3589 64.302C83.3589 64.7826 83.2703 65.378 83.4714 65.826C83.6755 66.2801 84.1238 66.4808 84.5316 66.7174C85.3014 67.1642 86.0711 67.6106 86.8407 68.0567C87.3846 68.3703 87.8757 67.529 87.3323 67.2156C86.7844 66.8996 86.2372 66.5822 85.6906 66.2636L84.6706 65.6714C84.5355 65.5928 84.3741 65.5341 84.3363 65.3663C84.3158 65.1781 84.3147 64.9883 84.3329 64.7999C84.3329 64.3363 84.3329 63.8728 84.3329 63.4093V62.7733C84.317 62.5788 84.3177 62.3833 84.3351 62.189C84.3758 61.9681 84.6095 61.8968 84.7865 61.794L85.667 61.2849L87.2838 60.3503L89.0277 59.342C89.2469 59.2152 89.5305 58.9714 89.7974 58.9851C90.0709 58.9992 90.3884 59.2704 90.6194 59.4046C91.1622 59.7211 91.6531 58.8791 91.1111 58.5636L91.1118 58.5621Z" fill="#211715"/>
</g>
<defs>
<clipPath id="clip0_1_239">
<rect width="94" height="94" fill="white" transform="translate(16.076 20)"/>
</clipPath>
</defs>
</svg>
