<svg width="127" height="127" viewBox="0 0 127 127" fill="none" xmlns="http://www.w3.org/2000/svg">
<rect x="63.7883" y="0.608887" width="89.2029" height="89.2029" transform="rotate(45 63.7883 0.608887)" fill="#F8F8F8"/>
<rect x="95.3262" y="9.05933" width="89.203" height="89.203" transform="rotate(75 95.3262 9.05933)" fill="#E8E7E7" fill-opacity="0.3"/>
<g clip-path="url(#clip0_1_170)">
<path d="M52.8566 102.975C48.8392 102.975 45.0623 100.902 42.8732 97.5338C35.6473 97.2389 30.0093 91.4651 30.0093 84.4143C30.0093 81.9819 30.698 79.6227 32.0125 77.5312C27.3802 74.6389 24.5434 69.5903 24.5434 64.1223C24.5434 58.6542 27.3802 53.6083 32.0125 50.7106C30.7007 48.6218 30.0093 46.2653 30.0093 43.8302C30.0093 36.7145 35.7512 30.9001 42.8868 30.6864C45.0814 27.3314 48.8501 25.2698 52.8566 25.2698C59.4266 25.2698 64.7722 30.5619 64.7722 37.0662V49.6202H88.3847C90.8553 49.6202 92.8667 47.6289 92.8667 45.183V40.616C91.2953 40.1885 90.1338 38.7599 90.1338 37.0662C90.1338 35.037 91.8009 33.3866 93.8506 33.3866C95.9003 33.3866 97.5674 35.037 97.5674 37.0662C97.5674 38.7572 96.4059 40.1858 94.8344 40.616V45.183C94.8344 48.703 91.9403 51.5682 88.3847 51.5682H64.7722V57.737H95.7336C96.1654 56.1786 97.6111 55.0314 99.3192 55.0314C101.369 55.0314 103.036 56.6818 103.036 58.711C103.036 60.7402 101.369 62.3907 99.3192 62.3907C97.6111 62.3907 96.1681 61.2435 95.7336 59.6851H64.7722V68.5594H95.7336C96.1654 67.0037 97.6111 65.8538 99.3192 65.8538C101.369 65.8538 103.036 67.5043 103.036 69.5335C103.036 71.5627 101.369 73.2131 99.3192 73.2131C97.6111 73.2131 96.1681 72.0632 95.7336 70.5075H64.7722V76.6736H88.3847C91.943 76.6736 94.8344 79.5388 94.8344 83.0588V87.6258C96.4059 88.0533 97.5674 89.4846 97.5674 91.1756C97.5674 93.2048 95.9003 94.8552 93.8506 94.8552C91.8009 94.8552 90.1338 93.2048 90.1338 91.1756C90.1338 89.4846 91.2953 88.056 92.8667 87.6258V83.0615C92.8667 80.6156 90.858 78.6243 88.3847 78.6243H64.7722V91.1783C64.7722 97.6826 59.4266 102.975 52.8566 102.975ZM43.8953 95.583L44.2861 96.0863C46.0953 99.1788 49.301 101.027 52.8566 101.027C58.3416 101.027 62.8045 96.6084 62.8045 91.1783V37.0662C62.8045 31.6361 58.3416 27.2178 52.8566 27.2178C49.301 27.2178 46.0953 29.0657 44.2834 32.1582L43.9664 32.6425C43.2722 34.0062 42.9087 35.5267 42.9087 37.0662C42.9087 38.7978 43.3678 40.4996 44.2396 41.9904L42.537 42.9644C41.493 41.1814 40.941 39.1387 40.941 37.0662C40.941 35.5862 41.2225 34.1225 41.7609 32.7562C36.1884 33.5327 31.977 38.2026 31.977 43.8302C31.977 46.2003 32.7504 48.4893 34.2098 50.4481L34.8821 51.3491L33.8873 51.8821C29.337 54.3198 26.5111 59.0087 26.5111 64.1223C26.5111 68.9518 29.0309 73.4025 33.1439 75.9322C35.6746 72.9642 39.3586 71.265 43.2913 71.265V73.2158C39.9954 73.2158 36.9072 74.6146 34.7509 77.0686L34.2098 77.7991C32.7504 79.7552 31.977 82.0442 31.977 84.4143C31.977 90.5912 37.052 95.6155 43.2913 95.6155L43.8953 95.583ZM93.8506 89.4467C92.8859 89.4467 92.1015 90.2232 92.1015 91.1783C92.1015 92.1334 92.8859 92.9099 93.8506 92.9099C94.8153 92.9099 95.5997 92.1334 95.5997 91.1783C95.5997 90.2232 94.8153 89.4467 93.8506 89.4467ZM99.3165 67.8019C98.3517 67.8019 97.5674 68.5784 97.5674 69.5335C97.5674 70.4885 98.3517 71.265 99.3165 71.265C100.281 71.265 101.066 70.4885 101.066 69.5335C101.066 68.5784 100.281 67.8019 99.3165 67.8019ZM99.3165 56.9795C98.3517 56.9795 97.5674 57.756 97.5674 58.711C97.5674 59.6661 98.3517 60.4426 99.3165 60.4426C100.281 60.4426 101.066 59.6661 101.066 58.711C101.066 57.756 100.281 56.9795 99.3165 56.9795ZM93.8506 35.3346C92.8859 35.3346 92.1015 36.1111 92.1015 37.0662C92.1015 38.0213 92.8859 38.7978 93.8506 38.7978C94.8153 38.7978 95.5997 38.0213 95.5997 37.0662C95.5997 36.1111 94.8153 35.3346 93.8506 35.3346ZM52.8566 97.5635V95.6155C55.3272 95.6155 57.3386 93.6269 57.3386 91.1783H59.3063C59.3063 94.701 56.4121 97.5635 52.8566 97.5635ZM44.6578 92.1523C40.348 92.1523 36.8416 88.681 36.8416 84.4143H38.8093C38.8093 87.6069 41.4329 90.2043 44.6578 90.2043V92.1523ZM52.8566 86.7411C49.301 86.7411 46.4069 83.8759 46.4069 80.3559C46.4069 76.8359 49.301 73.9707 52.8566 73.9707V75.9214C50.386 75.9214 48.3746 77.91 48.3746 80.3586C48.3746 82.8072 50.386 84.7958 52.8566 84.7958V86.7411ZM37.3663 65.9269C36.1474 64.7202 35.4751 63.1185 35.4751 61.4166C35.4751 57.6559 38.1261 55.0314 41.9249 55.0314C43.6767 55.0314 45.2536 55.6754 46.4861 56.8956L45.0923 58.2727C44.2396 57.4259 43.1437 56.9795 41.9249 56.9795C39.2029 56.9795 37.4428 58.7219 37.4428 61.4166C37.4428 62.599 37.9102 63.711 38.7547 64.5497L37.3663 65.9269ZM52.8566 55.6267V53.6786C55.3272 53.6786 57.3386 51.6873 57.3386 49.2414C57.3386 46.7956 55.3272 44.8042 52.8566 44.8042V42.8562C56.4121 42.8562 59.3063 45.7214 59.3063 49.2414C59.3063 52.7614 56.4121 55.6267 52.8566 55.6267ZM59.3063 37.0662H57.3386C57.3386 34.6203 55.3272 32.629 52.8566 32.629C50.386 32.629 48.3746 34.6203 48.3746 37.0662H46.4069C46.4069 33.5462 49.301 30.681 52.8566 30.681C56.4121 30.681 59.3063 33.5462 59.3063 37.0662Z" fill="black"/>
</g>
<defs>
<clipPath id="clip0_1_170">
<rect width="87.4539" height="86.5793" fill="white" transform="translate(20.0614 20.8325)"/>
</clipPath>
</defs>
</svg>
